<svg xmlns="http://www.w3.org/2000/svg" xmlns:xlink="http://www.w3.org/1999/xlink" width="500" zoomAndPan="magnify" viewBox="0 0 375 374.999991" height="500" preserveAspectRatio="xMidYMid meet" version="1.0"><defs><g/><clipPath id="id1"><path d="M 113 80 L 256 80 L 256 228.503906 L 113 228.503906 Z M 113 80 " clip-rule="nonzero"/></clipPath></defs><g clip-path="url(#id1)"><path fill="#42132c" d="M 236.40625 119.363281 C 236.644531 117.183594 236.46875 115.039062 235.878906 112.929688 C 235.289062 110.816406 234.328125 108.890625 233 107.152344 C 228.789062 101.640625 221.449219 98.191406 214.320312 98.359375 C 213.75 98.375 213.21875 98.441406 212.707031 98.503906 C 212.546875 98.527344 212.390625 98.546875 212.238281 98.5625 C 212.039062 97.828125 211.808594 97.105469 211.542969 96.394531 C 211.277344 95.679688 210.980469 94.984375 210.652344 94.296875 C 210.324219 93.613281 209.964844 92.945312 209.574219 92.292969 C 209.183594 91.640625 208.761719 91.011719 208.316406 90.398438 C 207.867188 89.785156 207.390625 89.195312 206.886719 88.625 C 206.382812 88.054688 205.855469 87.511719 205.300781 86.992188 C 204.746094 86.472656 204.171875 85.976562 203.570312 85.511719 C 202.972656 85.042969 202.351562 84.605469 201.714844 84.195312 C 201.074219 83.789062 200.417969 83.40625 199.742188 83.058594 C 199.066406 82.710938 198.378906 82.394531 197.675781 82.109375 C 196.972656 81.824219 196.253906 81.570312 195.527344 81.351562 C 194.800781 81.132812 194.066406 80.945312 193.320312 80.796875 C 192.578125 80.644531 191.828125 80.527344 191.074219 80.445312 C 190.316406 80.363281 189.5625 80.316406 188.800781 80.304688 C 188.042969 80.292969 187.285156 80.3125 186.527344 80.371094 C 185.769531 80.429688 185.015625 80.523438 184.269531 80.648438 C 180.3125 81.292969 176.542969 82.96875 172.753906 85.777344 C 169.761719 87.984375 166.671875 90.394531 164.398438 93.515625 C 156.234375 91.378906 147.230469 94.722656 143.121094 101.5625 C 139.449219 107.667969 137.859375 116.21875 142.082031 122.300781 C 140.996094 123.3125 140.082031 124.457031 139.34375 125.742188 C 138.605469 127.023438 138.070312 128.390625 137.742188 129.835938 C 131 140.421875 127.289062 152.742188 127.289062 164.558594 C 127.296875 169.375 127.832031 174.132812 128.90625 178.828125 C 129.980469 183.523438 131.5625 188.042969 133.65625 192.382812 C 130.308594 195.050781 127.585938 198.773438 125.714844 203.246094 C 120.738281 203.761719 113.914062 206.726562 113.253906 212.171875 C 112.289062 220.175781 124.332031 223.226562 129.472656 224.53125 L 129.617188 224.566406 C 137.429688 226.550781 145.34375 227.121094 153.359375 226.273438 C 157.265625 225.875 161.109375 225.144531 164.894531 224.085938 L 164.941406 224.085938 L 166.613281 223.605469 C 174.480469 226.890625 182.671875 228.519531 191.195312 228.503906 C 226.433594 228.503906 255.109375 199.816406 255.109375 164.558594 C 255.125 160.359375 254.726562 156.203125 253.914062 152.082031 C 253.105469 147.960938 251.894531 143.964844 250.289062 140.085938 C 248.6875 136.203125 246.714844 132.519531 244.378906 129.035156 C 242.042969 125.546875 239.386719 122.324219 236.40625 119.363281 Z M 236.40625 119.363281 " fill-opacity="1" fill-rule="nonzero"/></g><path fill="#f2f2f2" d="M 176.476562 209.558594 C 175.460938 208.082031 173.574219 207.609375 171.96875 207.0625 C 169.195312 206.109375 167.382812 204.535156 165.800781 202.082031 C 164.441406 199.980469 163.363281 197.675781 161.699219 195.78125 C 160.03125 193.886719 157.769531 192.613281 155.433594 191.722656 C 154.085938 191.21875 152.707031 190.851562 151.292969 190.617188 C 149.875 190.382812 148.453125 190.289062 147.015625 190.332031 C 145.582031 190.375 144.167969 190.558594 142.765625 190.878906 C 141.367188 191.195312 140.011719 191.648438 138.703125 192.234375 C 138.519531 192.316406 138.679688 192.585938 138.863281 192.503906 L 138.949219 192.46875 C 137.046875 193.601562 135.335938 194.96875 133.816406 196.574219 C 132.292969 198.183594 131.019531 199.964844 129.996094 201.925781 C 129.59375 202.703125 129.316406 203.539062 128.925781 204.316406 C 127.960938 206.234375 126.390625 206.054688 124.589844 206.558594 C 122.238281 207.21875 119.753906 208.375 117.992188 210.085938 C 115.550781 212.445312 116.015625 214.523438 117.96875 216.277344 L 118.175781 216.472656 C 118.378906 216.644531 118.59375 216.808594 118.816406 216.957031 C 123.882812 220.617188 135.160156 222.757812 137.832031 223.058594 C 143.839844 223.738281 150.347656 223.925781 156.367188 223.308594 C 159.140625 222.972656 161.835938 222.328125 164.460938 221.375 C 166.894531 220.539062 169.535156 219.738281 171.765625 218.425781 C 174.492188 216.8125 178.9375 213.128906 176.476562 209.558594 Z M 176.476562 209.558594 " fill-opacity="1" fill-rule="nonzero"/><path fill="#ff4528" d="M 176.101562 191.320312 C 175.648438 190.589844 173.679688 190.625 172.933594 190.535156 C 172.730469 190.511719 172.734375 190.839844 172.933594 190.839844 L 173.105469 190.859375 L 173.199219 190.953125 C 170.3125 193.421875 170.207031 198.078125 169.542969 201.535156 C 169.355469 202.507812 168.445312 204.636719 169.046875 205.585938 C 169.390625 206.125 171.933594 207.097656 172.410156 206.957031 C 173.601562 206.605469 173.476562 204.464844 173.621094 203.527344 C 174.019531 201.109375 174.414062 198.675781 174.964844 196.269531 C 175.222656 195.136719 175.53125 194.019531 175.871094 192.90625 C 175.992188 192.515625 176.382812 191.796875 176.101562 191.320312 Z M 176.101562 191.320312 " fill-opacity="1" fill-rule="nonzero"/><path fill="#ff4528" d="M 215.3125 195.519531 C 215.230469 194.949219 215.023438 194.425781 214.6875 193.953125 L 214.617188 193.84375 C 214.589844 193.804688 214.558594 193.777344 214.53125 193.742188 C 213.359375 192.304688 211.15625 191.707031 209.300781 191.144531 C 209.300781 191.117188 209.300781 191.089844 209.300781 191.0625 C 209.269531 190.898438 209.066406 190.925781 209 191.0625 L 208.675781 190.960938 C 208.480469 190.898438 208.398438 191.203125 208.589844 191.261719 L 209.027344 191.40625 C 209.957031 196.59375 210.339844 201.824219 210.171875 207.097656 C 210.007812 212.367188 209.300781 217.5625 208.046875 222.683594 C 208.03125 222.734375 208.042969 222.78125 208.074219 222.820312 C 208.105469 222.863281 208.144531 222.882812 208.199219 222.882812 C 209.921875 222.757812 212.730469 222.882812 214.003906 221.566406 C 214.03125 221.542969 214.058594 221.527344 214.082031 221.5 C 214.140625 221.441406 214.1875 221.375 214.222656 221.300781 C 214.414062 221.023438 214.539062 220.722656 214.601562 220.390625 C 215.359375 216.277344 215.320312 212.015625 215.449219 207.847656 C 215.574219 203.769531 215.925781 199.558594 215.3125 195.519531 Z M 215.3125 195.519531 " fill-opacity="1" fill-rule="nonzero"/><path fill="#ffffff" d="M 171.714844 191.574219 C 167.730469 190.96875 164.273438 192.980469 160.601562 194.167969 C 160.40625 194.234375 160.488281 194.535156 160.6875 194.472656 L 160.886719 194.402344 C 160.898438 194.417969 160.914062 194.429688 160.925781 194.445312 C 162.453125 195.53125 163.792969 196.808594 164.949219 198.28125 C 166.109375 199.753906 167.035156 201.359375 167.730469 203.097656 C 167.75 203.175781 167.800781 203.214844 167.878906 203.214844 C 167.960938 203.214844 168.011719 203.175781 168.03125 203.097656 L 171.824219 191.769531 C 171.851562 191.667969 171.8125 191.601562 171.714844 191.574219 Z M 171.714844 191.574219 " fill-opacity="1" fill-rule="nonzero"/><path fill="#ffffff" d="M 209.695312 195.238281 C 209.644531 193.960938 209.761719 192.335938 209.128906 191.160156 C 208.644531 190.253906 208.054688 190.089844 207.15625 189.78125 C 206.949219 189.75 206.746094 189.765625 206.550781 189.832031 C 205.882812 189.628906 205.441406 189.191406 205.226562 188.527344 C 204.621094 187.707031 204.199219 186.679688 203.714844 185.789062 C 203.6875 185.742188 203.652344 185.71875 203.597656 185.710938 C 203.546875 185.703125 203.503906 185.71875 203.46875 185.753906 C 202.460938 186.949219 201.921875 188.324219 201.304688 189.734375 C 200.84375 190.847656 200.214844 191.855469 199.417969 192.761719 C 198.625 193.667969 197.707031 194.421875 196.664062 195.023438 C 194.269531 196.472656 190.539062 197.101562 190.042969 200.339844 C 189.949219 200.941406 189.992188 201.546875 189.941406 202.152344 C 189.816406 203.796875 188.617188 205.554688 186.804688 205.535156 C 185.785156 205.535156 184.53125 204.125 184.3125 203.1875 C 184.09375 202.25 184.3125 201.347656 184.4375 200.375 C 184.53125 199.648438 184.667969 198.933594 184.511719 198.203125 C 183.882812 195.222656 179.675781 193.46875 177.285156 192.34375 C 177.246094 192.328125 177.207031 192.328125 177.167969 192.34375 L 177.101562 192.089844 C 177.117188 191.984375 177.140625 191.882812 177.160156 191.785156 C 177.195312 191.589844 176.894531 191.503906 176.859375 191.703125 C 176.273438 194.710938 175.6875 197.714844 175.105469 200.722656 C 174.824219 202.160156 174.542969 203.597656 174.265625 205.035156 C 174.136719 205.707031 173.707031 206.78125 173.960938 207.484375 C 174.175781 208.109375 175.011719 208.605469 175.40625 209.078125 C 176.511719 210.398438 177.222656 212.203125 176.757812 213.933594 C 176.425781 215.011719 175.882812 215.972656 175.128906 216.808594 L 175.066406 216.878906 C 174.839844 217.132812 174.609375 217.378906 174.375 217.628906 C 172.832031 219.15625 170.855469 220.40625 169.269531 220.910156 C 169.210938 220.929688 169.175781 220.964844 169.160156 221.023438 C 169.144531 221.082031 169.160156 221.132812 169.203125 221.179688 C 171.484375 223.105469 174.839844 223.335938 177.664062 223.859375 C 181.445312 224.535156 185.238281 225.085938 189.050781 225.507812 C 192.679688 225.90625 196.460938 226.496094 200.070312 225.734375 C 201.839844 225.320312 203.5625 224.769531 205.242188 224.085938 C 206.167969 223.730469 207.007812 223.414062 207.589844 222.570312 C 209.214844 220.1875 209.128906 215.957031 209.28125 213.21875 C 209.507812 209.144531 209.714844 205.066406 209.761719 200.988281 C 209.78125 199.066406 209.765625 197.152344 209.695312 195.238281 Z M 209.695312 195.238281 " fill-opacity="1" fill-rule="nonzero"/><path fill="#ffffff" d="M 232.839844 207.855469 C 232.585938 204.875 229.34375 201.75 227.148438 200.070312 C 223.675781 197.40625 219.503906 195.90625 215.433594 194.441406 C 215.390625 194.421875 215.351562 194.421875 215.3125 194.441406 L 214.882812 193.628906 C 214.832031 193.425781 214.78125 193.21875 214.730469 193.027344 C 214.699219 192.933594 214.632812 192.898438 214.539062 192.925781 C 214.445312 192.953125 214.40625 193.011719 214.429688 193.109375 C 215.667969 197.851562 216.21875 202.671875 216.078125 207.570312 C 215.941406 212.003906 214.535156 216.339844 214.546875 220.738281 C 214.546875 220.789062 214.570312 220.832031 214.609375 220.863281 C 214.648438 220.894531 214.695312 220.902344 214.746094 220.890625 C 218.664062 219.917969 222.191406 218.15625 225.324219 215.609375 C 227.15625 214.125 228.863281 212.492188 230.601562 210.90625 C 231.503906 210.078125 232.957031 209.246094 232.839844 207.855469 Z M 232.839844 207.855469 " fill-opacity="1" fill-rule="nonzero"/><path fill="#f9bd95" d="M 212.257812 156.316406 C 211.851562 154.5625 210.917969 152.484375 209.121094 152.402344 C 208.25 152.367188 207.441406 152.839844 206.75 153.371094 C 205.480469 154.34375 204.414062 155.511719 203.558594 156.863281 C 202.703125 158.21875 202.109375 159.679688 201.773438 161.246094 L 193.800781 140.078125 C 193.550781 139.285156 193.175781 138.558594 192.679688 137.898438 C 191.996094 137.179688 191.1875 136.675781 190.242188 136.386719 C 186.984375 135.207031 183.414062 135.40625 179.964844 135.625 C 178.984375 135.636719 178.03125 135.792969 177.097656 136.089844 C 175.929688 136.527344 174.980469 137.394531 174.074219 138.253906 C 170.921875 141.273438 168.011719 144.507812 165.339844 147.957031 C 165.058594 148.316406 164.539062 148.703125 164.21875 148.378906 C 164.09375 148.253906 164.066406 148.050781 163.917969 147.9375 C 163.652344 147.714844 163.265625 147.980469 163.011719 148.242188 C 161.890625 149.425781 160.804688 150.644531 159.753906 151.890625 C 159.214844 152.460938 158.796875 153.109375 158.492188 153.835938 C 158.289062 154.488281 158.191406 155.15625 158.1875 155.835938 C 158.035156 159.464844 157.886719 163.1875 158.683594 166.695312 C 158.320312 172.804688 161.648438 178.585938 165.792969 183.09375 C 168.28125 185.816406 171.144531 188.234375 174.464844 189.828125 C 175.40625 190.28125 176.386719 190.667969 177.285156 191.199219 C 179.035156 192.238281 180.40625 193.800781 181.75 195.332031 C 183.09375 196.859375 184.542969 198.5625 184.75 200.59375 C 184.890625 202.109375 184.484375 204 185.738281 204.851562 C 186.621094 205.457031 187.890625 205.070312 188.601562 204.28125 C 189.316406 203.492188 189.59375 202.414062 189.8125 201.375 C 190.03125 200.335938 190.191406 199.273438 190.824219 198.445312 C 191.351562 197.847656 191.964844 197.363281 192.667969 196.996094 C 195.195312 195.464844 197.714844 193.816406 199.621094 191.554688 C 201.527344 189.289062 202.78125 186.316406 202.355469 183.386719 L 201.90625 183.625 C 202.027344 182.714844 202.640625 181.953125 203.152344 181.1875 C 204.855469 178.628906 205.570312 175.550781 206.234375 172.550781 C 206.53125 171.433594 206.6875 170.296875 206.707031 169.136719 C 208.078125 166.5 208.265625 163.21875 210.273438 161.027344 C 211.039062 160.1875 212.085938 159.492188 212.386719 158.398438 C 212.558594 157.738281 212.414062 157.007812 212.257812 156.316406 Z M 212.257812 156.316406 " fill-opacity="1" fill-rule="nonzero"/><path fill="#ff4528" d="M 217.367188 175.339844 C 216.929688 174.601562 215.976562 173.121094 214.964844 173.136719 C 214.238281 173.136719 213.238281 174.15625 212.648438 174.515625 C 211.09375 175.457031 209.570312 176.128906 207.710938 175.992188 C 207.640625 175.992188 207.59375 176.023438 207.566406 176.085938 C 207.539062 176.152344 207.550781 176.207031 207.597656 176.257812 L 207.117188 176.703125 C 206.515625 176.160156 206.074219 177.023438 205.738281 177.453125 C 204.90625 178.507812 203.441406 179.984375 204.203125 181.429688 C 204.890625 182.742188 207.007812 183.277344 208.300781 183.597656 C 210.089844 184.039062 211.984375 184.082031 213.65625 183.234375 C 216.652344 181.710938 219.363281 178.714844 217.367188 175.339844 Z M 217.367188 175.339844 " fill-opacity="1" fill-rule="nonzero"/><path fill="#ffffff" d="M 218.097656 130.707031 C 214.9375 126.589844 209.882812 124.09375 205.234375 122.074219 C 199.964844 119.785156 194.472656 117.425781 188.808594 116.328125 C 183.074219 115.214844 177.378906 115.40625 171.730469 116.902344 C 168.84375 117.710938 166.0625 118.800781 163.390625 120.164062 C 161.226562 121.222656 158.8125 122.332031 157.949219 124.773438 C 157.023438 127.441406 157.257812 131.066406 157.46875 133.84375 C 157.675781 136.566406 158.355469 139.148438 159.910156 141.421875 C 159.933594 141.453125 159.964844 141.472656 160 141.480469 L 159.847656 141.917969 L 159.644531 142.066406 C 159.484375 142.195312 159.710938 142.414062 159.867188 142.292969 C 165.414062 137.964844 172.316406 136.34375 179.230469 135.988281 C 185.863281 135.652344 192.1875 135.792969 198.214844 138.832031 C 200.820312 140.144531 203.410156 141.554688 205.894531 143.085938 C 208.816406 144.898438 211.011719 147.171875 213.550781 149.40625 C 214.609375 150.335938 216.078125 151.183594 217.527344 150.644531 C 219.289062 149.992188 219.832031 147.476562 220.148438 145.878906 C 221.121094 141.0625 221.214844 134.753906 218.097656 130.707031 Z M 218.097656 130.707031 " fill-opacity="1" fill-rule="nonzero"/><path fill="#ffffff" d="M 238.414062 133.925781 C 237.617188 131.488281 236.320312 129.359375 234.523438 127.53125 C 233.054688 126.003906 231.804688 124.484375 232.582031 122.1875 C 233.042969 120.875 233.355469 119.527344 233.515625 118.144531 C 233.816406 115.109375 233.289062 112.222656 231.941406 109.488281 C 230.5 106.605469 228.265625 105.160156 225.445312 103.773438 C 222.625 102.382812 219.566406 100.988281 216.355469 100.75 C 215.644531 100.695312 214.929688 100.703125 214.21875 100.777344 C 213.570312 100.851562 212.738281 101.269531 212.101562 101.242188 C 211.660156 101.234375 211.238281 101.136719 210.839844 100.9375 C 210.445312 99.722656 209.910156 98.566406 209.234375 97.480469 L 208.6875 95.4375 C 208.65625 95.347656 208.589844 95.316406 208.5 95.339844 C 208.40625 95.367188 208.367188 95.425781 208.386719 95.519531 C 208.386719 95.539062 208.386719 95.554688 208.386719 95.566406 L 208.082031 95.765625 C 207.445312 94.882812 206.753906 94.019531 206.046875 93.144531 C 204.316406 90.953125 202.355469 88.996094 200.164062 87.273438 C 199.117188 86.433594 197.992188 85.707031 196.796875 85.101562 C 196.347656 84.878906 195.886719 84.679688 195.429688 84.496094 C 192.40625 83.226562 189.269531 82.804688 186.019531 83.230469 C 182.144531 83.746094 178.601562 85.128906 175.394531 87.371094 C 173.972656 88.351562 172.640625 89.441406 171.402344 90.644531 C 169.851562 92.140625 168.539062 94.199219 166.652344 95.296875 C 164.332031 96.648438 161.761719 95.554688 159.28125 95.558594 C 157.355469 95.609375 155.511719 96.019531 153.746094 96.789062 C 150.382812 98.160156 146.921875 100.175781 145.09375 103.453125 C 144.277344 105.03125 143.671875 106.683594 143.28125 108.417969 C 142.761719 110.421875 142.070312 112.605469 142.390625 114.703125 C 142.625 116.257812 143.46875 117.597656 144.15625 118.984375 C 144.722656 120.117188 145.285156 121.347656 145.304688 122.648438 C 145.328125 124.664062 143.988281 125.703125 142.664062 126.878906 C 139.808594 129.441406 139.644531 133.535156 140.527344 137.058594 C 141.597656 141.34375 144.339844 144.957031 147.621094 147.824219 C 149.300781 149.320312 151.101562 150.65625 153.027344 151.828125 C 154.09375 152.460938 155.214844 152.992188 156.300781 152.101562 C 157.382812 151.214844 157.8125 149.3125 158.175781 148.078125 C 158.855469 145.796875 159.269531 143.464844 159.425781 141.089844 C 159.632812 141.304688 159.234375 140.207031 159.167969 140.34375 C 156.199219 136.816406 156.230469 131.875 157.117188 127.4375 C 157.601562 125 158.058594 122.367188 160.285156 120.890625 C 162.289062 119.558594 164.910156 118.863281 167.207031 118.207031 C 170.53125 117.253906 173.917969 116.652344 177.371094 116.394531 C 184.261719 116.914062 190.390625 116.5 197.0625 118.304688 C 199.09375 118.851562 202.015625 120.960938 204.230469 121.664062 C 204.777344 122.019531 205.367188 122.265625 206 122.40625 C 206.140625 122.417969 206.277344 122.417969 206.417969 122.40625 C 206.9375 122.59375 207.453125 122.789062 207.972656 123.007812 C 210.855469 124.21875 213.519531 125.777344 215.460938 128 C 219.949219 133.140625 220.027344 141.042969 219.695312 147.484375 C 219.503906 151.097656 218.988281 154.664062 218.144531 158.179688 C 217.804688 159.609375 216.398438 162.414062 218.042969 163.625 C 219.453125 164.644531 221.6875 163.375 222.984375 162.769531 C 225.179688 161.742188 227.15625 160.347656 228.191406 158.105469 C 229.1875 155.933594 228.996094 154.015625 228.492188 151.78125 C 228.28125 150.875 228.226562 151.589844 228.492188 150.023438 C 228.730469 148.65625 228.996094 148.449219 230.265625 147.90625 C 230.925781 147.632812 231.683594 147.574219 232.367188 147.359375 C 233.320312 147.054688 234.191406 146.601562 234.992188 146 C 238.652344 143.21875 239.746094 138.210938 238.414062 133.925781 Z M 165.609375 95.9375 L 165.660156 95.9375 Z M 165.941406 95.820312 L 165.984375 95.808594 Z M 165.941406 95.820312 " fill-opacity="1" fill-rule="nonzero"/><path fill="#ffe8cc" d="M 163.078125 180.277344 C 161.222656 177.585938 160.398438 174.332031 159.609375 171.15625 C 158.921875 168.375 158.226562 165.558594 158.21875 162.691406 C 158.21875 160.898438 158.472656 159.046875 157.890625 157.347656 C 157.203125 155.332031 155.445312 153.890625 153.710938 152.648438 C 150.460938 150.332031 146.960938 148.3125 144.125 145.5 C 141.289062 142.6875 139.140625 138.847656 139.484375 134.878906 L 139.859375 133.242188 C 133.910156 141.371094 130.859375 151.4375 130.488281 161.503906 C 130.121094 171.570312 132.363281 181.628906 136.210938 190.933594 C 136.335938 191.328125 136.554688 191.664062 136.859375 191.941406 C 137.464844 192.402344 138.296875 192.203125 139.015625 191.996094 C 145.367188 190.183594 152.492188 189.464844 158.414062 192.425781 C 159.238281 192.839844 160.058594 193.332031 160.972656 193.449219 C 162.050781 193.59375 163.121094 193.21875 164.144531 192.84375 L 172.910156 189.652344 L 167.675781 185.058594 C 166.019531 183.59375 164.328125 182.105469 163.078125 180.277344 Z M 163.078125 180.277344 " fill-opacity="1" fill-rule="nonzero"/><path fill="#ffe8cc" d="M 233.679688 120.839844 L 233.933594 121.070312 C 234.082031 120.988281 234.238281 120.921875 234.402344 120.878906 Z M 233.679688 120.839844 " fill-opacity="1" fill-rule="nonzero"/><path fill="#ffe8cc" d="M 251.394531 156.644531 C 250.929688 151.703125 250.230469 146.707031 248.253906 142.152344 C 247.363281 140.210938 246.363281 138.324219 245.253906 136.5 C 242.03125 130.960938 238.71875 125.3125 233.933594 121.078125 C 232.808594 121.714844 232.402344 123.367188 232.785156 124.667969 C 233.214844 126.136719 234.320312 127.289062 235.234375 128.515625 C 236.335938 130 237.179688 131.613281 237.773438 133.359375 C 238.363281 135.109375 238.671875 136.90625 238.699219 138.75 C 238.71875 140.261719 238.519531 141.824219 237.761719 143.128906 C 235.996094 146.152344 231.976562 146.808594 229.039062 148.722656 C 228.648438 148.976562 228.242188 149.300781 228.152344 149.753906 C 228.117188 150.167969 228.195312 150.5625 228.386719 150.929688 C 228.632812 151.566406 228.804688 152.21875 228.902344 152.894531 C 229.003906 153.566406 229.03125 154.242188 228.980469 154.921875 C 228.933594 155.601562 228.8125 156.269531 228.617188 156.921875 C 228.421875 157.574219 228.160156 158.199219 227.828125 158.792969 C 227.496094 159.386719 227.105469 159.941406 226.652344 160.449219 C 226.199219 160.957031 225.695312 161.410156 225.144531 161.808594 C 224.589844 162.207031 224.003906 162.542969 223.378906 162.808594 C 222.75 163.078125 222.105469 163.277344 221.433594 163.402344 C 220.136719 163.648438 218.679688 163.671875 217.726562 164.585938 C 217.011719 165.277344 216.773438 166.308594 216.570312 167.285156 C 216.085938 169.566406 215.625 172.042969 216.597656 174.164062 C 216.902344 174.816406 217.332031 175.414062 217.53125 176.101562 C 217.949219 177.535156 217.316406 179.03125 216.976562 180.484375 C 215.984375 184.71875 217.484375 189.105469 219.242188 193.074219 C 219.589844 193.949219 220.054688 194.757812 220.636719 195.492188 C 221.476562 196.46875 222.640625 197.082031 223.710938 197.789062 C 227.765625 200.480469 230.535156 204.675781 233.191406 208.75 C 238.25 205.035156 241.484375 199.402344 244.570312 193.933594 C 246.269531 190.929688 247.984375 187.882812 248.980469 184.589844 C 249.542969 182.558594 249.96875 180.503906 250.257812 178.414062 C 250.992188 173.808594 251.734375 169.1875 251.789062 164.503906 C 251.796875 161.878906 251.664062 159.257812 251.394531 156.644531 Z M 251.394531 156.644531 " fill-opacity="1" fill-rule="nonzero"/><path fill="#cccccc" d="M 165.109375 200.828125 C 163.453125 197.894531 161.382812 195.6875 158.441406 194.03125 C 155.941406 192.621094 152.089844 190.375 149.148438 190.757812 C 149.050781 190.769531 149 190.824219 149 190.921875 L 148.371094 190.953125 L 148.132812 190.828125 C 147.953125 190.738281 147.792969 191.007812 147.972656 191.097656 C 149.007812 191.609375 150 192.191406 150.949219 192.839844 C 151.902344 193.492188 152.800781 194.203125 153.652344 194.980469 C 154.503906 195.757812 155.292969 196.59375 156.027344 197.480469 C 156.757812 198.371094 157.425781 199.308594 158.027344 200.289062 C 158.628906 201.273438 159.15625 202.292969 159.613281 203.351562 C 160.070312 204.410156 160.449219 205.496094 160.753906 206.605469 C 161.058594 207.71875 161.28125 208.847656 161.425781 209.988281 C 161.570312 211.132812 161.632812 212.28125 161.617188 213.433594 C 161.617188 213.484375 161.640625 213.527344 161.679688 213.554688 C 161.722656 213.585938 161.765625 213.597656 161.816406 213.585938 C 164.289062 212.941406 167.4375 212.796875 167.941406 209.761719 C 168.441406 206.726562 166.550781 203.402344 165.109375 200.828125 Z M 165.109375 200.828125 " fill-opacity="1" fill-rule="nonzero"/><path fill="#cccccc" d="M 177.289062 212.902344 C 176.878906 208.433594 172.398438 206.527344 168.546875 205.878906 C 168.46875 205.878906 168.363281 205.898438 168.351562 205.992188 C 168.285156 206.636719 168.320312 207.273438 168.46875 207.90625 C 168.789062 209.835938 168.519531 210.960938 167.257812 212.378906 C 167.113281 212.296875 166.929688 212.492188 167.066406 212.621094 L 167.082031 212.640625 C 167.089844 212.730469 167.136719 212.78125 167.222656 212.796875 C 168.691406 214.785156 160.699219 217.65625 160.003906 217.878906 C 157.554688 218.601562 155.074219 219.199219 152.5625 219.667969 C 146.984375 220.8125 141.378906 221.886719 135.679688 222.132812 C 135.597656 222.140625 135.550781 222.1875 135.539062 222.269531 C 135.527344 222.347656 135.5625 222.40625 135.636719 222.4375 C 138.449219 223.203125 141.296875 223.980469 144.222656 224.125 C 147.148438 224.273438 150.042969 223.800781 152.917969 223.523438 C 155.789062 223.242188 158.722656 223.097656 161.550781 222.527344 C 164.378906 221.957031 166.960938 220.582031 169.738281 219.804688 C 173.125 218.867188 177.691406 217.28125 177.289062 212.902344 Z M 177.289062 212.902344 " fill-opacity="1" fill-rule="nonzero"/><path fill="#cccccc" d="M 149.40625 191.339844 L 149.453125 191.339844 C 149.769531 191.382812 150.085938 191.402344 150.40625 191.40625 C 150.496094 191.390625 150.542969 191.339844 150.542969 191.246094 C 150.542969 191.152344 150.496094 191.101562 150.40625 191.085938 C 148.878906 191.121094 147.367188 190.996094 145.871094 190.710938 C 145.792969 190.695312 145.738281 190.71875 145.699219 190.789062 C 145.65625 190.855469 145.664062 190.917969 145.714844 190.976562 C 148.480469 194.132812 149.75 198.234375 151.007812 202.148438 C 152.4375 206.609375 153.480469 211.199219 152.6875 215.890625 C 152.671875 215.945312 152.6875 215.996094 152.730469 216.039062 C 152.773438 216.082031 152.820312 216.097656 152.878906 216.085938 L 156.289062 215.445312 C 156.367188 215.421875 156.40625 215.371094 156.40625 215.292969 C 156.523438 213.171875 156.460938 211.054688 156.21875 208.941406 C 155.976562 206.832031 155.558594 204.753906 154.960938 202.714844 C 154.363281 200.675781 153.601562 198.699219 152.667969 196.789062 C 151.734375 194.878906 150.648438 193.0625 149.40625 191.339844 Z M 147.699219 191.152344 C 147.984375 191.152344 148.28125 191.191406 148.585938 191.226562 C 148.289062 191.207031 147.996094 191.183594 147.699219 191.152344 Z M 147.699219 191.152344 " fill-opacity="1" fill-rule="nonzero"/><path fill="#f2f2f2" d="M 184.277344 196.1875 C 183.785156 195.320312 182.878906 194.945312 182.03125 194.515625 C 180.378906 193.726562 179.039062 192.574219 178.011719 191.058594 C 177.980469 191.003906 177.933594 190.980469 177.875 190.980469 C 177.8125 190.980469 177.769531 191.003906 177.738281 191.058594 C 176.945312 192.402344 176.238281 193.792969 175.621094 195.226562 C 175.542969 195.410156 175.816406 195.574219 175.894531 195.386719 L 175.894531 195.371094 L 175.929688 195.382812 C 175.894531 195.433594 175.894531 195.480469 175.929688 195.527344 C 176.050781 195.691406 176.179688 195.855469 176.300781 196.019531 C 176.164062 196.414062 176.0625 196.804688 175.980469 197.03125 C 175.386719 198.671875 174.882812 200.335938 174.46875 202.03125 C 174.101562 203.542969 172.65625 207.195312 174.28125 208.382812 C 174.359375 208.449219 174.425781 208.441406 174.472656 208.347656 L 174.886719 208.734375 L 174.871094 208.816406 C 174.832031 209.015625 175.136719 209.097656 175.171875 208.898438 C 175.886719 205.25 176.8125 201.652344 177.945312 198.109375 C 179.6875 200.21875 181.558594 202.207031 183.5625 204.070312 C 183.601562 204.113281 183.652344 204.125 183.710938 204.109375 C 183.769531 204.097656 183.808594 204.058594 183.824219 204 C 184.117188 202.492188 184.324219 200.96875 184.449219 199.4375 C 184.589844 198.421875 184.820312 197.152344 184.277344 196.1875 Z M 184.277344 196.1875 " fill-opacity="1" fill-rule="nonzero"/><path fill="#f2f2f2" d="M 208.46875 190.90625 C 207.949219 189.839844 207.707031 189.332031 206.523438 189.523438 C 205.925781 189.625 205.363281 189.828125 204.835938 190.128906 C 204.933594 189.863281 205.027344 189.597656 205.113281 189.324219 C 205.128906 189.257812 205.113281 189.203125 205.0625 189.160156 C 205.011719 189.117188 204.953125 189.113281 204.894531 189.144531 L 203.636719 186.542969 C 203.652344 186.515625 203.671875 186.484375 203.695312 186.457031 C 203.808594 186.289062 203.535156 186.128906 203.417969 186.296875 C 200.847656 190.066406 198.320312 194.421875 194.046875 196.484375 C 192.875 197.054688 191.023438 197.21875 190.339844 198.496094 C 189.578125 199.941406 189.765625 202.214844 189.589844 203.792969 C 189.589844 203.84375 189.609375 203.886719 189.652344 203.917969 C 189.691406 203.949219 189.738281 203.957031 189.789062 203.945312 C 192.46875 203.226562 194.925781 202.046875 197.160156 200.402344 C 199.390625 198.753906 201.25 196.761719 202.730469 194.414062 C 202.726562 195.777344 202.621094 197.132812 202.40625 198.480469 C 202.382812 198.597656 202.511719 198.746094 202.636719 198.660156 C 203.601562 197.96875 204.695312 196.871094 205.78125 196.402344 C 206.488281 196.101562 206.523438 195.695312 206.863281 196.582031 C 207.078125 197.132812 206.929688 198.007812 206.941406 198.613281 C 207.019531 201.320312 206.976562 204.03125 206.816406 206.738281 C 206.464844 212.417969 205.613281 218.019531 204.253906 223.546875 C 204.226562 223.667969 204.367188 223.808594 204.484375 223.722656 C 207.023438 221.84375 207.8125 218.839844 208.242188 215.84375 C 208.871094 211.359375 209.261719 206.859375 209.410156 202.335938 C 209.5625 198.640625 210.140625 194.328125 208.46875 190.90625 Z M 208.46875 190.90625 " fill-opacity="1" fill-rule="nonzero"/><path fill="#f2f2f2" d="M 232.925781 208.023438 C 232.859375 206.914062 231.9375 205.835938 231.363281 204.945312 C 230.636719 203.789062 229.84375 202.683594 228.988281 201.621094 C 227.25 199.535156 225.097656 197.957031 222.734375 196.648438 C 220.433594 195.378906 217.828125 193.835938 215.199219 193.425781 C 215.140625 193.410156 215.089844 193.425781 215.046875 193.46875 C 215.003906 193.511719 214.992188 193.558594 215.003906 193.617188 C 215.496094 195.214844 215.886719 196.835938 216.179688 198.480469 C 216.183594 198.507812 216.191406 198.527344 216.207031 198.546875 L 216.007812 198.714844 L 215.960938 198.6875 C 215.78125 198.59375 215.621094 198.867188 215.800781 198.960938 C 218.539062 200.398438 221.320312 201.863281 223.636719 203.941406 C 226.179688 206.230469 227.644531 209.140625 228.707031 212.347656 C 228.722656 212.421875 228.765625 212.464844 228.84375 212.476562 C 228.921875 212.484375 228.976562 212.453125 229.007812 212.382812 C 229.589844 211.371094 230.402344 210.609375 231.449219 210.089844 C 231.808594 209.941406 232.136719 209.742188 232.433594 209.488281 C 232.847656 209.082031 233.011719 208.59375 232.925781 208.023438 Z M 229.867188 210.960938 C 229.992188 210.84375 230.125 210.730469 230.261719 210.625 Z M 229.867188 210.960938 " fill-opacity="1" fill-rule="nonzero"/><path fill="#f2f2f2" d="M 219.742188 134.269531 C 218.40625 131.34375 216.554688 128.792969 214.1875 126.617188 C 211.769531 124.441406 208.53125 123.164062 205.566406 121.929688 C 205.523438 121.90625 205.480469 121.90625 205.441406 121.929688 C 205.339844 121.851562 205.246094 121.773438 205.136719 121.695312 C 204.976562 121.574219 204.816406 121.847656 204.980469 121.96875 C 209.042969 124.992188 208.855469 130.222656 208.214844 134.734375 C 208.078125 135.722656 207.921875 136.707031 207.75 137.6875 C 207.683594 138.101562 207.605469 138.507812 207.519531 138.914062 C 207.472656 139.300781 207.332031 139.652344 207.101562 139.964844 C 206.867188 140.28125 206.574219 140.515625 206.21875 140.675781 C 205.878906 141.054688 205.679688 140.882812 205.632812 141.480469 C 205.5625 142.417969 207.953125 144.164062 208.546875 144.734375 C 209.800781 145.9375 211.117188 147.070312 212.492188 148.136719 C 214.109375 149.390625 216.261719 151.617188 218.417969 150.277344 C 220.578125 148.933594 220.390625 146.042969 220.441406 143.835938 C 220.515625 140.800781 220.996094 137.144531 219.742188 134.269531 Z M 219.742188 134.269531 " fill-opacity="1" fill-rule="nonzero"/><path fill="#f2f2f2" d="M 169.429688 101.039062 C 168.347656 98.976562 167.011719 97.007812 164.683594 96.285156 C 159.429688 94.652344 153 96.738281 148.609375 99.664062 C 148.558594 99.703125 148.535156 99.75 148.539062 99.8125 C 148.542969 99.871094 148.574219 99.917969 148.628906 99.945312 L 148.472656 100.296875 C 147.984375 100.570312 147.574219 100.933594 147.234375 101.378906 C 147.203125 101.429688 147.203125 101.484375 147.234375 101.535156 C 147.265625 101.589844 147.308594 101.613281 147.371094 101.617188 L 147.996094 101.539062 C 148.167969 101.519531 148.191406 101.277344 148.0625 101.238281 L 148.0625 101.214844 C 148.585938 101.089844 149.214844 100.335938 149.804688 100.152344 C 150.238281 100.042969 150.675781 99.964844 151.117188 99.921875 C 152.332031 99.738281 153.550781 99.644531 154.777344 99.640625 C 157.128906 99.609375 159.414062 99.984375 161.636719 100.761719 C 165.484375 102.164062 168.671875 104.871094 170.402344 108.625 C 170.464844 108.761719 170.644531 108.695312 170.703125 108.585938 C 171.769531 105.972656 170.652344 103.390625 169.429688 101.039062 Z M 170.015625 107.472656 C 169.875 107.261719 169.746094 107.042969 169.628906 106.816406 C 169.761719 107.03125 169.886719 107.246094 170.011719 107.472656 Z M 170.015625 107.472656 " fill-opacity="1" fill-rule="nonzero"/><path fill="#f2f2f2" d="M 238.4375 135.894531 C 238.003906 134.070312 237.324219 132.34375 236.402344 130.710938 C 235.902344 129.820312 235.351562 128.960938 234.75 128.136719 C 234.101562 127.226562 232.832031 126.15625 232.4375 125.191406 C 231.554688 123.03125 232.878906 120.402344 233 118.148438 C 233.109375 116.125 232.882812 114.136719 232.328125 112.1875 C 231.796875 110.246094 230.9375 108.464844 229.75 106.84375 C 228.570312 105.304688 227.097656 104.792969 225.300781 104.207031 C 220.621094 102.691406 215.886719 101.273438 210.96875 100.953125 C 209.683594 98.6875 209.027344 96.128906 207.820312 93.796875 C 206.609375 91.460938 204.636719 89.589844 202.460938 88.050781 C 197.496094 84.578125 191.515625 82.433594 185.429688 83.339844 C 185.257812 83.367188 185.296875 83.585938 185.429688 83.644531 L 185.402344 83.734375 C 185.207031 83.671875 185.125 83.976562 185.316406 84.035156 C 189.054688 85.277344 193.375 86.152344 196.433594 88.773438 C 199.105469 91.054688 201.230469 94.085938 202.707031 97.242188 C 205.730469 103.738281 206.941406 114.78125 199.324219 118.683594 C 199.265625 118.71875 199.238281 118.773438 199.25 118.839844 C 199.257812 118.910156 199.296875 118.953125 199.363281 118.972656 C 201.074219 119.515625 202.820312 120.011719 204.585938 120.425781 C 204.507812 120.453125 204.476562 120.507812 204.484375 120.589844 C 204.496094 120.671875 204.542969 120.714844 204.621094 120.726562 L 204.804688 120.726562 L 206.394531 122.058594 C 206.355469 122.101562 206.347656 122.152344 206.363281 122.207031 C 206.378906 122.257812 206.414062 122.292969 206.46875 122.3125 C 207.582031 122.605469 208.65625 123.011719 209.683594 123.53125 C 210.714844 124.050781 211.679688 124.667969 212.582031 125.386719 C 213.480469 126.109375 214.300781 126.914062 215.03125 127.800781 C 215.765625 128.691406 216.398438 129.648438 216.933594 130.671875 C 217.941406 132.691406 218.675781 134.808594 219.136719 137.019531 C 219.242188 137.53125 219.335938 138.039062 219.441406 138.550781 C 219.457031 138.648438 219.472656 138.742188 219.492188 138.839844 C 219.925781 141.523438 219.984375 144.214844 219.671875 146.914062 C 219.390625 149.125 218.433594 151.449219 218.347656 153.644531 C 218.320312 154.023438 218.375 154.390625 218.511719 154.746094 C 217.957031 156.5 218.023438 158.375 218.167969 160.1875 C 218.253906 161.257812 218.199219 162.652344 219.175781 163.335938 C 221.234375 164.769531 225.070312 162.546875 226.621094 161.183594 C 229.34375 158.800781 228.828125 152.320312 228.796875 152.285156 C 227.082031 150.027344 229.324219 148.714844 231.261719 147.8125 C 233.007812 146.992188 234.335938 146.421875 235.964844 145.296875 C 238.679688 143.429688 239.0625 138.628906 238.4375 135.894531 Z M 238.4375 135.894531 " fill-opacity="1" fill-rule="nonzero"/><path fill="#f2f2f2" d="M 159.289062 122.222656 L 158.988281 121.59375 L 159.027344 121.550781 C 159.175781 121.410156 158.949219 121.1875 158.804688 121.328125 C 154.546875 125.5625 153.265625 130.820312 153.363281 136.679688 C 153.441406 140.609375 153.613281 144.308594 152.640625 148.148438 C 152.453125 148.894531 151.695312 150.871094 152.121094 151.671875 C 152.425781 152.222656 153.113281 152.453125 153.632812 152.738281 C 155.613281 153.828125 155.964844 153.410156 156.882812 151.277344 C 157.980469 148.738281 159.09375 145.644531 159.109375 142.851562 C 159.132812 139.65625 157.730469 136.5625 157.597656 133.335938 C 157.46875 129.558594 158.097656 125.914062 159.484375 122.398438 C 159.558594 122.257812 159.402344 122.175781 159.289062 122.222656 Z M 159.289062 122.222656 " fill-opacity="1" fill-rule="nonzero"/><path fill="#42132c" d="M 234.84375 119.886719 C 235.558594 115.804688 234.398438 111.417969 231.820312 108.046875 C 227.84375 102.835938 220.878906 99.671875 214.355469 99.835938 C 213.492188 99.851562 212.664062 100.027344 211.808594 100.082031 C 210.875 100.148438 211.117188 100.121094 210.875 99.175781 C 210.695312 98.480469 210.484375 97.792969 210.238281 97.117188 C 209.996094 96.4375 209.71875 95.773438 209.414062 95.125 C 209.109375 94.472656 208.773438 93.835938 208.410156 93.214844 C 208.042969 92.597656 207.652344 91.996094 207.230469 91.410156 C 206.808594 90.828125 206.363281 90.265625 205.890625 89.722656 C 205.417969 89.179688 204.917969 88.660156 204.398438 88.164062 C 203.875 87.671875 203.332031 87.199219 202.769531 86.753906 C 202.203125 86.308594 201.617188 85.890625 201.015625 85.5 C 200.410156 85.109375 199.789062 84.746094 199.152344 84.414062 C 198.515625 84.082031 197.863281 83.777344 197.199219 83.503906 C 196.53125 83.234375 195.855469 82.992188 195.167969 82.78125 C 194.480469 82.570312 193.78125 82.394531 193.078125 82.25 C 192.375 82.105469 191.664062 81.992188 190.949219 81.914062 C 190.234375 81.835938 189.515625 81.789062 188.796875 81.777344 C 188.078125 81.765625 187.359375 81.785156 186.644531 81.839844 C 185.925781 81.894531 185.210938 81.984375 184.503906 82.105469 C 180.46875 82.761719 176.882812 84.550781 173.613281 86.96875 C 170.40625 89.339844 167.183594 91.859375 164.996094 95.238281 C 157.652344 92.863281 148.464844 95.523438 144.371094 102.332031 C 140.785156 108.296875 139.230469 116.996094 144.121094 122.539062 C 142.824219 123.5 141.746094 124.65625 140.882812 126.015625 C 140.019531 127.375 139.429688 128.847656 139.109375 130.425781 C 132.433594 140.800781 128.753906 152.914062 128.753906 164.558594 C 128.757812 169.46875 129.328125 174.308594 130.46875 179.085938 C 131.609375 183.859375 133.289062 188.4375 135.503906 192.816406 C 131.464844 195.679688 128.550781 199.945312 126.738281 204.640625 C 122.480469 204.820312 115.316406 207.355469 114.710938 212.351562 C 113.898438 219.128906 125.292969 221.949219 129.980469 223.140625 C 137.625 225.074219 145.363281 225.632812 153.203125 224.808594 C 157.027344 224.417969 160.789062 223.703125 164.488281 222.664062 C 165.207031 222.464844 165.945312 222.25 166.695312 222.03125 C 174.519531 225.378906 182.683594 227.042969 191.195312 227.027344 C 225.625 227.027344 253.636719 199.003906 253.636719 164.558594 C 253.652344 160.394531 253.25 156.269531 252.433594 152.1875 C 251.621094 148.105469 250.402344 144.144531 248.789062 140.304688 C 247.175781 136.46875 245.195312 132.832031 242.84375 129.390625 C 240.496094 125.953125 237.828125 122.785156 234.84375 119.886719 Z M 141.5 131.363281 L 141.515625 131.328125 C 142.066406 128.257812 143.753906 125.488281 146.78125 123.855469 C 146.949219 123.757812 147.089844 123.625 147.195312 123.460938 C 147.300781 123.296875 147.367188 123.121094 147.394531 122.925781 C 147.417969 122.734375 147.398438 122.542969 147.335938 122.359375 C 147.273438 122.171875 147.175781 122.011719 147.035156 121.871094 C 141.714844 117.214844 143.257812 109.019531 146.5625 103.605469 C 150.214844 97.628906 158.332031 95.570312 164.699219 97.792969 C 164.90625 97.878906 165.117188 97.898438 165.335938 97.847656 C 165.554688 97.796875 165.738281 97.691406 165.886719 97.523438 C 166.355469 97.53125 166.703125 97.328125 166.929688 96.921875 C 168.726562 93.96875 171.441406 91.777344 174.15625 89.714844 C 176.792969 87.699219 179.597656 85.957031 182.808594 85.066406 C 189.078125 83.339844 196.03125 84.601562 201.140625 88.679688 C 203.359375 90.449219 205.152344 92.574219 206.527344 95.054688 C 207.21875 96.304688 207.777344 97.617188 208.195312 98.984375 C 208.519531 100.054688 208.546875 101.574219 209.492188 102.328125 C 210.289062 102.960938 211.191406 102.75 212.117188 102.605469 C 214.109375 102.285156 216.09375 102.316406 218.074219 102.691406 C 221.054688 103.257812 223.78125 104.414062 226.261719 106.160156 C 231.976562 110.246094 234.832031 118.179688 230.21875 124.195312 C 229.582031 125.027344 230.273438 125.84375 231.105469 125.976562 C 235.269531 128.921875 238.058594 134.851562 237.269531 139.96875 C 236.535156 144.683594 231.882812 147.71875 227.425781 148.308594 C 226.519531 148.429688 225.78125 149.308594 226.335938 150.210938 C 229.679688 155.683594 225.859375 162.664062 219.632812 162.648438 C 220.023438 159.457031 220.117188 156.257812 219.914062 153.050781 C 219.953125 152.761719 219.894531 152.496094 219.734375 152.253906 C 219.671875 152.15625 219.609375 152.070312 219.550781 151.972656 C 221.335938 149.78125 221.300781 146.453125 221.542969 143.769531 C 221.882812 140.058594 221.933594 136.15625 220.417969 132.679688 C 217.472656 125.914062 209.492188 121.589844 202.9375 119.097656 C 195.566406 116.285156 187.28125 114.613281 179.378906 114.863281 C 175.167969 114.96875 171.0625 115.671875 167.058594 116.980469 C 164.101562 117.964844 159.777344 119.339844 158.074219 122.183594 C 156.699219 124.480469 156.324219 127.832031 155.957031 130.425781 C 155.464844 133.933594 155.910156 137.515625 157.652344 140.613281 C 157.277344 140.863281 157.074219 141.21875 157.050781 141.667969 C 156.140625 145.097656 155.40625 148.554688 154.84375 152.046875 C 149.816406 148.824219 144.871094 145.027344 142.472656 139.390625 C 141.359375 136.8125 141.035156 134.132812 141.5 131.363281 Z M 196.359375 186.136719 C 196.578125 186.652344 200.015625 185.726562 200.953125 185.042969 C 200.984375 185.167969 201.019531 185.296875 201.058594 185.425781 C 200.753906 189.785156 197.816406 193.289062 193.964844 195.34375 C 192.597656 196.074219 190.421875 196.359375 189.429688 197.648438 C 188.441406 198.941406 188.332031 201.300781 188.3125 203.09375 L 186.316406 204.082031 C 186.167969 204.023438 186.03125 203.945312 185.90625 203.847656 C 185.257812 203.328125 185.375 203.246094 185.496094 202.242188 C 185.660156 200.875 186.359375 198.832031 185.847656 197.507812 C 185.371094 196.273438 183.730469 195.445312 182.796875 194.59375 C 181.984375 193.859375 181.207031 193.082031 180.457031 192.289062 C 183.398438 192.410156 190.085938 189.664062 189.867188 189.042969 C 189.671875 188.484375 180.070312 190.253906 175.925781 188.980469 C 171.695312 187.6875 168.191406 184.703125 165.347656 181.390625 C 159.046875 174.015625 159.46875 163.570312 159.859375 154.472656 C 159.863281 154.351562 159.847656 154.230469 159.820312 154.109375 C 160.683594 152.664062 161.605469 151.253906 162.542969 149.859375 L 162.542969 150.535156 C 162.542969 151.863281 164.207031 152.160156 164.894531 151.175781 C 165.738281 149.964844 166.601562 148.761719 167.484375 147.5625 C 168.332031 147.648438 172.625 147.992188 171.484375 146.839844 C 170.816406 146.171875 170.039062 145.683594 169.148438 145.375 C 171.316406 142.546875 173.65625 139.871094 176.171875 137.347656 C 176.863281 137.28125 177.550781 137.21875 178.238281 137.179688 C 182.269531 136.910156 186.285156 137.042969 190.285156 137.566406 C 195.386719 145.242188 198.144531 154.160156 200.371094 163.03125 C 200.691406 164.308594 202.417969 164.152344 202.808594 163.03125 C 203.734375 160.363281 204.378906 156.582031 206.464844 154.542969 C 209.671875 151.40625 212.121094 155.671875 211.246094 158.734375 C 210.800781 160.28125 209.332031 160.65625 208.273438 161.667969 C 207.449219 162.445312 207.0625 163.453125 206.839844 164.542969 C 206.523438 166.128906 206.359375 167.722656 206.113281 169.304688 C 205.328125 173.320312 204.230469 177.839844 201.652344 181.003906 C 200.472656 182.445312 196.09375 185.503906 196.359375 186.136719 Z M 171.039062 198.925781 C 171.714844 196.570312 172.25 193.902344 173.761719 191.921875 C 173.785156 191.886719 173.804688 191.851562 173.824219 191.816406 L 174.019531 191.792969 C 174.125 191.78125 174.222656 191.761719 174.324219 191.726562 C 174.628906 191.738281 174.929688 191.777344 175.230469 191.835938 C 174.222656 196.453125 173.21875 201.070312 172.222656 205.695312 C 171.320312 205.417969 170.40625 205.203125 169.476562 205.046875 C 169.949219 202.992188 170.460938 200.953125 171.039062 198.925781 Z M 168.824219 197.480469 C 168.371094 199.019531 167.960938 200.570312 167.574219 202.128906 C 166.554688 199.609375 165.121094 197.359375 163.265625 195.375 C 163.0625 195.164062 162.851562 194.957031 162.636719 194.769531 C 165.191406 193.65625 167.839844 192.835938 170.578125 192.308594 C 169.785156 193.925781 169.332031 195.761719 168.824219 197.480469 Z M 203.730469 182.308594 C 205.136719 183.648438 207.054688 184.046875 209 184.011719 C 211.019531 183.972656 213.265625 183.8125 215.167969 182.980469 C 215.558594 186.605469 216.464844 190.09375 217.890625 193.453125 C 214.359375 191.683594 210.71875 190.183594 206.964844 188.957031 C 206.847656 188.753906 206.683594 188.597656 206.476562 188.492188 C 205.746094 186.917969 204.894531 185.410156 203.921875 183.972656 C 203.78125 183.765625 203.59375 183.609375 203.359375 183.511719 C 203.296875 183.421875 203.21875 183.339844 203.132812 183.273438 C 203.132812 183.203125 203.109375 183.128906 203.097656 183.0625 C 203.332031 182.820312 203.535156 182.566406 203.734375 182.308594 Z M 215.753906 179.535156 C 214.910156 180.578125 213.457031 180.988281 212.1875 181.207031 C 209.925781 181.597656 206.835938 182.011719 205.15625 180.140625 C 205.472656 179.574219 205.761719 178.992188 206.03125 178.390625 C 208.535156 178.203125 211.167969 177.9375 213.347656 176.601562 C 214.007812 176.191406 214.601562 175.699219 215.128906 175.128906 C 216.585938 175.976562 216.785156 178.265625 215.761719 179.535156 Z M 215.847656 168.210938 C 215.289062 170.257812 214.5 172.445312 212.839844 173.863281 C 211.234375 175.226562 209.097656 175.59375 207.035156 175.78125 C 207.296875 174.992188 207.53125 174.191406 207.746094 173.382812 C 207.796875 173.292969 207.835938 173.195312 207.867188 173.097656 C 208.296875 171.566406 208.621094 170.011719 208.828125 168.4375 C 208.828125 168.394531 208.828125 168.351562 208.851562 168.308594 C 208.875 168.265625 208.851562 168.242188 208.851562 168.207031 C 208.875 168.03125 208.902344 167.855469 208.925781 167.679688 C 209.054688 166.683594 209.054688 165.492188 209.394531 164.546875 C 209.847656 163.300781 210.941406 162.960938 211.875 162.183594 C 214.3125 160.15625 214.515625 156.0625 212.988281 153.410156 C 211.410156 150.664062 208.082031 150.265625 205.566406 151.992188 C 203.582031 153.359375 202.5 155.738281 201.679688 158.164062 C 199.765625 151.207031 197.339844 144.3125 193.605469 138.132812 C 197.789062 138.941406 201.765625 140.34375 205.535156 142.339844 C 207.949219 143.625 210.160156 145.195312 212.167969 147.050781 C 214.179688 148.90625 215.917969 150.988281 217.386719 153.292969 C 217.679688 158.347656 217.167969 163.320312 215.855469 168.210938 Z M 166.960938 136.414062 C 164.523438 137.058594 161.992188 137.875 159.765625 139.15625 C 157.433594 134.71875 158.117188 128.726562 159.949219 124.199219 C 161.011719 121.566406 164.925781 120.367188 167.398438 119.515625 C 170.820312 118.34375 174.335938 117.652344 177.945312 117.441406 C 184.617188 117.035156 191.332031 118.175781 197.730469 120.023438 C 204.125 121.871094 210.363281 124.777344 215.113281 129.53125 C 218.199219 132.613281 219.289062 136.242188 219.214844 140.550781 C 219.1875 142.363281 218.996094 144.179688 218.800781 145.972656 C 218.667969 147.230469 218.585938 148.613281 218 149.738281 C 206.65625 134.753906 184.273438 131.835938 166.960938 136.414062 Z M 131.289062 164.558594 C 131.289062 154.84375 133.96875 144.785156 138.890625 135.753906 C 139.007812 136.707031 139.207031 137.644531 139.496094 138.558594 C 141.835938 145.960938 148.148438 150.792969 154.457031 154.761719 C 154.171875 156.894531 153.941406 159.03125 153.785156 161.179688 C 153.671875 162.691406 155.8125 162.785156 156.261719 161.515625 C 156.566406 160.71875 156.867188 159.933594 157.207031 159.164062 C 157.066406 167.933594 157.933594 176.933594 164.078125 183.71875 C 166.160156 186.023438 168.523438 188.113281 171.214844 189.644531 C 167.464844 190.265625 163.871094 191.382812 160.433594 193 C 157.28125 190.953125 153.835938 189.730469 150.097656 189.328125 C 149.824219 187.910156 148.964844 186.441406 147.351562 186.410156 C 145.621094 186.371094 144.53125 187.824219 144.203125 189.371094 C 141.894531 189.679688 139.710938 190.382812 137.660156 191.488281 C 135.5625 187.308594 133.976562 182.945312 132.898438 178.394531 C 131.824219 173.847656 131.28125 169.234375 131.28125 164.558594 Z M 127.859375 209.523438 C 129.371094 203.171875 132.730469 197.125 138.601562 193.863281 C 144.296875 190.703125 152.304688 191.226562 157.933594 194.386719 C 162.410156 196.894531 165.121094 201.5625 166.355469 206.457031 C 166.363281 206.503906 166.375 206.546875 166.390625 206.59375 C 166.585938 207.398438 166.75 208.203125 166.871094 209.011719 C 166.945312 209.527344 167.199219 210.34375 166.894531 210.828125 C 166.589844 211.308594 164.925781 211.785156 164.441406 211.992188 C 162.839844 212.671875 161.199219 213.234375 159.519531 213.683594 C 156.25 214.550781 152.921875 215.054688 149.542969 215.195312 C 145.898438 215.355469 142.265625 215.230469 138.640625 214.8125 C 136.480469 214.574219 134.082031 214.414062 132.082031 213.503906 C 130.929688 212.984375 128.09375 211.429688 127.738281 209.835938 C 127.792969 209.738281 127.832031 209.632812 127.859375 209.523438 Z M 165.949219 219.585938 C 158.65625 221.910156 151.1875 222.910156 143.542969 222.585938 C 136.140625 222.28125 127.890625 220.925781 121.3125 217.335938 C 119.925781 216.578125 118.222656 215.597656 117.535156 214.105469 C 116.875 212.660156 117.460938 211.707031 118.464844 210.671875 C 120.410156 208.671875 123.101562 207.53125 125.847656 207.238281 C 125.78125 207.460938 125.722656 207.679688 125.664062 207.902344 C 125.484375 208.066406 125.363281 208.269531 125.308594 208.507812 C 124.402344 211.917969 128.433594 214.652344 131.113281 215.832031 C 134.761719 217.433594 139.429688 217.535156 143.355469 217.722656 C 147.710938 217.960938 152.035156 217.710938 156.335938 216.976562 C 160.265625 216.28125 164.75 215.164062 168.167969 213 C 169.875 211.914062 169.773438 209.675781 169.304688 207.585938 C 172.507812 208.214844 176.515625 209.640625 175.683594 213.332031 C 174.8125 217.203125 169.214844 218.539062 165.953125 219.585938 Z M 178.296875 223.109375 C 175.609375 222.519531 172.976562 221.746094 170.398438 220.789062 C 172.078125 220.167969 173.644531 219.335938 175.097656 218.285156 C 177.757812 216.265625 179.214844 212.839844 177.558594 209.726562 C 176.863281 208.425781 175.875 207.417969 174.589844 206.703125 C 175.597656 202.089844 176.597656 197.480469 177.59375 192.867188 C 178.667969 194.101562 179.808594 195.265625 181.019531 196.363281 C 181.554688 196.847656 182.992188 197.644531 183.28125 198.269531 C 183.613281 198.980469 183.265625 200 183.167969 200.773438 C 183.078125 201.476562 182.882812 202.285156 182.832031 203.089844 C 181.808594 202.429688 178.675781 200.152344 178.265625 200.78125 C 177.960938 201.230469 179.855469 204.0625 180.757812 204.730469 C 181.476562 205.261719 182.242188 205.714844 183.050781 206.09375 C 181.742188 207.035156 180.722656 208.210938 180.367188 210.070312 C 179.550781 214.398438 178.886719 218.75 178.300781 223.109375 Z M 206.109375 222.402344 C 206.09375 222.476562 206.082031 222.554688 206.078125 222.628906 C 201.941406 223.6875 197.738281 224.296875 193.472656 224.457031 C 189.203125 224.621094 184.96875 224.332031 180.761719 223.59375 C 181.234375 220.09375 181.773438 216.605469 182.382812 213.128906 C 182.683594 211.425781 182.660156 209.648438 184.046875 208.496094 C 185.167969 207.558594 186.71875 206.863281 188.042969 206.167969 C 189.257812 206.425781 190.476562 206.472656 191.707031 206.308594 C 192.9375 206.144531 194.105469 205.78125 195.207031 205.214844 C 197.15625 204.269531 201.414062 200.285156 201.050781 199.84375 C 200.625 199.320312 194.046875 203.714844 190.839844 203.886719 L 190.839844 203.871094 C 190.859375 202.644531 190.726562 200.71875 191.304688 199.636719 C 191.800781 198.730469 193.144531 198.515625 194.042969 198.105469 C 195.875 197.28125 197.539062 196.195312 199.027344 194.84375 C 201.171875 192.894531 202.582031 190.507812 203.261719 187.691406 C 203.761719 188.582031 204.210938 189.496094 204.609375 190.4375 C 204.558594 191.75 203.800781 195.253906 204.148438 195.519531 C 204.769531 195.980469 206.929688 192.761719 207.058594 191.636719 C 207.292969 191.714844 207.53125 191.792969 207.765625 191.875 C 209.058594 202.152344 208.503906 212.328125 206.109375 222.402344 Z M 212.824219 220.457031 C 211.515625 220.96875 210.179688 221.433594 208.824219 221.851562 C 210.976562 212.285156 211.507812 202.632812 210.421875 192.886719 C 211.496094 193.316406 212.5625 193.765625 213.617188 194.242188 C 214.933594 203.027344 214.667969 211.765625 212.824219 220.457031 Z M 215.628906 219.289062 C 217.09375 211.402344 217.328125 203.480469 216.324219 195.523438 C 218.011719 196.355469 219.679688 197.226562 221.328125 198.132812 C 225.773438 200.582031 230.152344 203.703125 231.605469 208.769531 C 226.84375 213.132812 221.519531 216.640625 215.628906 219.289062 Z M 233.636719 206.832031 C 231.890625 202.296875 228.027344 199.082031 223.847656 196.65625 C 223.023438 196.175781 222.1875 195.707031 221.347656 195.25 C 221.363281 195.015625 221.316406 194.792969 221.207031 194.585938 C 219.066406 190.394531 217.851562 185.945312 217.558594 181.246094 C 219.578125 178.789062 219.300781 174.851562 216.621094 173.082031 C 216.957031 172.496094 217.246094 171.890625 217.496094 171.265625 C 218.285156 169.269531 218.871094 167.214844 219.253906 165.101562 C 226.886719 165.210938 232.300781 157.539062 229.316406 150.464844 C 234.152344 149.273438 238.664062 145.96875 239.6875 140.847656 C 240.882812 134.867188 237.855469 128.105469 233.160156 124.355469 C 233.496094 123.804688 233.789062 123.234375 234.035156 122.640625 C 235.394531 124.03125 236.6875 125.484375 237.90625 127.003906 C 239.125 128.519531 240.265625 130.089844 241.332031 131.71875 C 242.398438 133.347656 243.382812 135.023438 244.285156 136.746094 C 245.1875 138.472656 246.003906 140.234375 246.734375 142.039062 C 247.464844 143.84375 248.109375 145.679688 248.660156 147.546875 C 249.210938 149.410156 249.671875 151.300781 250.039062 153.210938 C 250.40625 155.121094 250.679688 157.046875 250.859375 158.984375 C 251.039062 160.921875 251.125 162.867188 251.117188 164.8125 C 251.109375 166.757812 251.003906 168.699219 250.804688 170.636719 C 250.605469 172.570312 250.316406 174.492188 249.929688 176.402344 C 249.542969 178.308594 249.066406 180.195312 248.496094 182.054688 C 247.925781 183.914062 247.269531 185.746094 246.519531 187.542969 C 245.773438 189.339844 244.9375 191.09375 244.019531 192.808594 C 243.101562 194.527344 242.101562 196.191406 241.019531 197.808594 C 239.9375 199.429688 238.78125 200.988281 237.546875 202.496094 C 236.3125 204 235.011719 205.441406 233.636719 206.820312 Z M 233.636719 206.832031 " fill-opacity="1" fill-rule="nonzero"/><path fill="#42132c" d="M 186.089844 213.332031 L 186.046875 213.351562 C 185.945312 213.347656 185.84375 213.355469 185.742188 213.371094 C 184.535156 213.546875 183.878906 215.011719 184.1875 216.105469 C 184.570312 217.464844 186.128906 217.941406 187.316406 217.316406 C 187.464844 217.238281 187.601562 217.148438 187.730469 217.042969 C 187.859375 216.933594 187.976562 216.8125 188.078125 216.679688 C 188.179688 216.546875 188.261719 216.40625 188.332031 216.253906 C 188.402344 216.101562 188.453125 215.941406 188.488281 215.777344 C 188.523438 215.613281 188.535156 215.449219 188.535156 215.28125 C 188.53125 215.113281 188.507812 214.949219 188.46875 214.785156 C 188.425781 214.625 188.367188 214.46875 188.292969 214.320312 C 188.21875 214.167969 188.125 214.03125 188.019531 213.902344 C 187.78125 213.628906 187.484375 213.441406 187.136719 213.339844 C 186.789062 213.234375 186.441406 213.234375 186.089844 213.332031 Z M 186.089844 213.332031 " fill-opacity="1" fill-rule="nonzero"/><path fill="#42132c" d="M 170.96875 163.398438 C 171.242188 162.9375 171.441406 162.449219 171.574219 161.933594 C 171.757812 161.445312 171.867188 160.941406 171.902344 160.421875 C 171.929688 159.828125 171.910156 159.234375 171.847656 158.644531 C 171.800781 157.929688 171.664062 157.230469 171.433594 156.550781 C 170.828125 154.601562 169.53125 153.054688 167.148438 153.769531 C 163.589844 154.835938 163.519531 159.890625 164.46875 162.777344 C 165.539062 165.972656 169.238281 166.203125 170.96875 163.398438 Z M 170.96875 163.398438 " fill-opacity="1" fill-rule="nonzero"/><path fill="#42132c" d="M 188.039062 156.597656 C 187.449219 154.644531 186.179688 153.082031 183.789062 153.765625 C 180.21875 154.789062 180.082031 159.839844 181 162.738281 C 182.015625 165.941406 185.714844 166.210938 187.476562 163.433594 C 187.75 162.976562 187.953125 162.492188 188.082031 161.976562 C 188.273438 161.488281 188.390625 160.984375 188.429688 160.464844 C 188.476562 159.871094 188.476562 159.277344 188.429688 158.6875 C 188.390625 157.972656 188.261719 157.277344 188.039062 156.597656 Z M 188.039062 156.597656 " fill-opacity="1" fill-rule="nonzero"/><path fill="#42132c" d="M 174.835938 175.5625 C 172.238281 175.5625 169.742188 172.644531 169.195312 173.003906 C 168.695312 173.335938 170.117188 178.054688 174.871094 178.054688 C 179.484375 178.054688 181.339844 173.320312 180.894531 172.976562 C 180.347656 172.554688 178.277344 175.5625 174.835938 175.5625 Z M 174.835938 175.5625 " fill-opacity="1" fill-rule="nonzero"/><path fill="#42132c" d="M 186.179688 144.628906 C 184.464844 144.515625 182.863281 144.882812 181.367188 145.734375 C 179.941406 146.515625 181.21875 148.699219 182.644531 147.914062 C 184.191406 147.0625 191.503906 147.652344 190.519531 146.382812 C 189.59375 145.1875 187.613281 144.734375 186.179688 144.628906 Z M 186.179688 144.628906 " fill-opacity="1" fill-rule="nonzero"/><path fill="#42132c" d="M 204.8125 155.988281 C 204.984375 155.402344 205.191406 154.828125 205.433594 154.265625 C 206.429688 152.328125 209.277344 151.777344 211.066406 153.015625 C 212.855469 154.253906 213.414062 156.878906 212.511719 158.859375 C 211.867188 160.277344 210.632812 161.339844 209.847656 162.6875 C 209.136719 163.898438 208.816406 165.316406 208.511719 166.695312 C 207.757812 170.085938 207 173.480469 206.246094 176.875 C 210.253906 176.105469 214.441406 174.453125 216.527344 170.953125 C 217.800781 168.800781 218.113281 166.226562 218.398438 163.738281 C 218.585938 162.058594 218.777344 160.375 218.972656 158.691406 C 219.109375 157.457031 219.25 156.199219 219.015625 154.980469 C 218.574219 152.691406 216.898438 150.875 215.277344 149.191406 L 210.945312 144.652344 C 209.886719 143.546875 208.816406 142.429688 207.523438 141.605469 C 206.234375 140.78125 204.832031 140.304688 203.414062 139.816406 C 200.582031 138.839844 197.730469 137.859375 194.777344 137.371094 C 193.867188 137.21875 192.933594 137.113281 192.054688 136.898438 C 196.132812 144.371094 199.3125 152.207031 201.589844 160.40625 C 202.855469 159.089844 204.175781 157.714844 204.8125 155.988281 Z M 204.8125 155.988281 " fill-opacity="1" fill-rule="nonzero"/><path fill="#42132c" d="M 190.617188 136.429688 C 191.074219 136.632812 191.546875 136.789062 192.035156 136.902344 L 191.90625 136.660156 Z M 190.617188 136.429688 " fill-opacity="1" fill-rule="nonzero"/><path fill="#42132c" d="M 217.945312 190.597656 C 217.5 188.207031 217.054688 185.820312 216.609375 183.4375 C 216.585938 183.078125 216.445312 182.777344 216.1875 182.527344 C 215.878906 182.355469 215.550781 182.308594 215.203125 182.394531 C 213.164062 182.632812 211.132812 183.128906 209.082031 182.996094 C 207.316406 182.890625 204.582031 181.167969 204.582031 181.167969 C 203.84375 180.980469 203.113281 181.664062 202.972656 182.410156 C 202.828125 183.15625 203.101562 183.921875 203.394531 184.617188 C 203.984375 186.046875 204.660156 187.4375 205.417969 188.785156 C 205.691406 189.335938 206.054688 189.820312 206.511719 190.230469 C 207.082031 190.625 207.703125 190.894531 208.382812 191.039062 C 212.085938 192.089844 215.726562 193.324219 219.308594 194.742188 C 218.5 193.519531 218.214844 192.035156 217.945312 190.597656 Z M 217.945312 190.597656 " fill-opacity="1" fill-rule="nonzero"/><path fill="#ff5d6b" d="M 166.933594 169.160156 C 166.933594 169.351562 166.871094 169.53125 166.738281 169.707031 C 166.609375 169.882812 166.425781 170.035156 166.1875 170.167969 C 165.949219 170.300781 165.671875 170.40625 165.359375 170.476562 C 165.046875 170.550781 164.722656 170.585938 164.382812 170.585938 C 164.042969 170.585938 163.71875 170.550781 163.40625 170.476562 C 163.09375 170.40625 162.816406 170.300781 162.578125 170.167969 C 162.339844 170.035156 162.15625 169.882812 162.027344 169.707031 C 161.894531 169.53125 161.832031 169.351562 161.832031 169.160156 C 161.832031 168.972656 161.894531 168.792969 162.027344 168.617188 C 162.15625 168.441406 162.339844 168.289062 162.578125 168.15625 C 162.816406 168.019531 163.09375 167.917969 163.40625 167.847656 C 163.71875 167.773438 164.042969 167.738281 164.382812 167.738281 C 164.722656 167.738281 165.046875 167.773438 165.359375 167.847656 C 165.671875 167.917969 165.949219 168.019531 166.1875 168.15625 C 166.425781 168.289062 166.609375 168.441406 166.738281 168.617188 C 166.871094 168.792969 166.933594 168.972656 166.933594 169.160156 Z M 166.933594 169.160156 " fill-opacity="1" fill-rule="nonzero"/><path fill="#ff5d6b" d="M 190.308594 169.160156 C 190.308594 169.351562 190.242188 169.53125 190.113281 169.707031 C 189.984375 169.882812 189.800781 170.035156 189.558594 170.167969 C 189.320312 170.300781 189.046875 170.40625 188.734375 170.476562 C 188.421875 170.550781 188.09375 170.585938 187.757812 170.585938 C 187.417969 170.585938 187.09375 170.550781 186.78125 170.476562 C 186.46875 170.40625 186.191406 170.300781 185.953125 170.167969 C 185.714844 170.035156 185.527344 169.882812 185.398438 169.707031 C 185.269531 169.53125 185.203125 169.351562 185.203125 169.160156 C 185.203125 168.972656 185.269531 168.792969 185.398438 168.617188 C 185.527344 168.441406 185.714844 168.289062 185.953125 168.15625 C 186.191406 168.019531 186.46875 167.917969 186.78125 167.847656 C 187.09375 167.773438 187.417969 167.738281 187.757812 167.738281 C 188.09375 167.738281 188.421875 167.773438 188.734375 167.847656 C 189.046875 167.917969 189.320312 168.019531 189.558594 168.15625 C 189.800781 168.289062 189.984375 168.441406 190.113281 168.617188 C 190.242188 168.792969 190.308594 168.972656 190.308594 169.160156 Z M 190.308594 169.160156 " fill-opacity="1" fill-rule="nonzero"/><path fill="#ffffff" d="M 169.671875 156.171875 C 169.671875 156.351562 169.636719 156.527344 169.570312 156.695312 C 169.5 156.863281 169.398438 157.011719 169.273438 157.136719 C 169.144531 157.265625 168.996094 157.367188 168.828125 157.4375 C 168.660156 157.503906 168.484375 157.539062 168.304688 157.539062 C 168.121094 157.539062 167.949219 157.503906 167.78125 157.4375 C 167.613281 157.367188 167.464844 157.265625 167.335938 157.136719 C 167.207031 157.011719 167.109375 156.863281 167.039062 156.695312 C 166.96875 156.527344 166.933594 156.351562 166.933594 156.171875 C 166.933594 155.988281 166.96875 155.8125 167.039062 155.644531 C 167.109375 155.476562 167.207031 155.328125 167.335938 155.203125 C 167.464844 155.074219 167.613281 154.972656 167.78125 154.902344 C 167.949219 154.835938 168.121094 154.800781 168.304688 154.800781 C 168.484375 154.800781 168.660156 154.835938 168.828125 154.902344 C 168.996094 154.972656 169.144531 155.074219 169.273438 155.203125 C 169.398438 155.328125 169.5 155.476562 169.570312 155.644531 C 169.636719 155.8125 169.671875 155.988281 169.671875 156.171875 Z M 169.671875 156.171875 " fill-opacity="1" fill-rule="nonzero"/><path fill="#ffffff" d="M 170.585938 158.488281 C 170.585938 158.695312 170.511719 158.871094 170.367188 159.015625 C 170.222656 159.160156 170.046875 159.234375 169.84375 159.234375 C 169.636719 159.234375 169.460938 159.160156 169.316406 159.015625 C 169.171875 158.871094 169.097656 158.695312 169.097656 158.488281 C 169.097656 158.285156 169.171875 158.109375 169.316406 157.964844 C 169.460938 157.816406 169.636719 157.746094 169.84375 157.746094 C 170.046875 157.746094 170.222656 157.816406 170.367188 157.964844 C 170.511719 158.109375 170.585938 158.285156 170.585938 158.488281 Z M 170.585938 158.488281 " fill-opacity="1" fill-rule="nonzero"/><path fill="#ffffff" d="M 186.464844 156.171875 C 186.464844 156.351562 186.429688 156.527344 186.363281 156.695312 C 186.292969 156.863281 186.191406 157.011719 186.066406 157.136719 C 185.9375 157.265625 185.789062 157.367188 185.621094 157.4375 C 185.453125 157.503906 185.277344 157.539062 185.097656 157.539062 C 184.914062 157.539062 184.738281 157.503906 184.570312 157.4375 C 184.40625 157.367188 184.257812 157.265625 184.128906 157.136719 C 184 157.011719 183.902344 156.863281 183.832031 156.695312 C 183.761719 156.527344 183.726562 156.351562 183.726562 156.171875 C 183.726562 155.988281 183.761719 155.8125 183.832031 155.644531 C 183.902344 155.476562 184 155.328125 184.128906 155.203125 C 184.257812 155.074219 184.40625 154.972656 184.570312 154.902344 C 184.738281 154.835938 184.914062 154.800781 185.097656 154.800781 C 185.277344 154.800781 185.453125 154.835938 185.621094 154.902344 C 185.789062 154.972656 185.9375 155.074219 186.066406 155.203125 C 186.191406 155.328125 186.292969 155.476562 186.363281 155.644531 C 186.429688 155.8125 186.464844 155.988281 186.464844 156.171875 Z M 186.464844 156.171875 " fill-opacity="1" fill-rule="nonzero"/><path fill="#ffffff" d="M 187.382812 158.488281 C 187.382812 158.695312 187.308594 158.871094 187.164062 159.015625 C 187.019531 159.160156 186.84375 159.234375 186.636719 159.234375 C 186.433594 159.234375 186.257812 159.160156 186.113281 159.015625 C 185.96875 158.871094 185.894531 158.695312 185.894531 158.488281 C 185.894531 158.285156 185.96875 158.109375 186.113281 157.964844 C 186.257812 157.816406 186.433594 157.746094 186.636719 157.746094 C 186.84375 157.746094 187.019531 157.816406 187.164062 157.964844 C 187.308594 158.109375 187.382812 158.285156 187.382812 158.488281 Z M 187.382812 158.488281 " fill-opacity="1" fill-rule="nonzero"/><path fill="#ffab39" d="M 125.632812 178.519531 C 125.632812 178.519531 125.554688 187.8125 130.152344 188.472656 C 130.152344 188.472656 124.8125 189.921875 124.214844 194.09375 C 124.214844 194.09375 122.839844 187.804688 118.3125 187.160156 C 118.3125 187.160156 124.300781 185.8125 125.632812 178.519531 Z M 125.632812 178.519531 " fill-opacity="1" fill-rule="nonzero"/><path fill="#ffab39" d="M 135.84375 166.222656 C 135.84375 166.222656 135.78125 173.703125 139.46875 174.230469 C 139.46875 174.230469 135.167969 175.398438 134.691406 178.765625 C 134.691406 178.765625 133.585938 173.707031 129.9375 173.1875 C 129.953125 173.175781 134.769531 172.09375 135.84375 166.222656 Z M 135.84375 166.222656 " fill-opacity="1" fill-rule="nonzero"/><g fill="#42132c" fill-opacity="1"><g transform="translate(66.40221, 270.25258)"><g><path d="M 2.265625 -2.015625 L 2.265625 -28.734375 C 2.265625 -29.367188 2.585938 -29.851562 3.234375 -30.1875 C 3.878906 -30.53125 4.648438 -30.703125 5.546875 -30.703125 C 6.441406 -30.703125 7.207031 -30.53125 7.84375 -30.1875 C 8.488281 -29.851562 8.8125 -29.367188 8.8125 -28.734375 L 8.8125 -18.640625 L 16.671875 -29.78125 C 17.085938 -30.394531 17.660156 -30.703125 18.390625 -30.703125 C 19.265625 -30.703125 20.128906 -30.34375 20.984375 -29.625 C 21.835938 -28.914062 22.265625 -28.15625 22.265625 -27.34375 C 22.265625 -26.894531 22.125 -26.472656 21.84375 -26.078125 L 14.953125 -17.4375 L 23.640625 -4.109375 C 23.867188 -3.742188 23.984375 -3.382812 23.984375 -3.03125 C 23.984375 -2.21875 23.5625 -1.46875 22.71875 -0.78125 C 21.882812 -0.09375 20.988281 0.25 20.03125 0.25 C 19.019531 0.25 18.265625 -0.15625 17.765625 -0.96875 L 10.578125 -11.890625 L 8.8125 -9.625 L 8.8125 -2.015625 C 8.8125 -1.367188 8.488281 -0.867188 7.84375 -0.515625 C 7.207031 -0.171875 6.441406 0 5.546875 0 C 4.648438 0 3.878906 -0.171875 3.234375 -0.515625 C 2.585938 -0.867188 2.265625 -1.367188 2.265625 -2.015625 Z M 2.265625 -2.015625 "/></g></g></g><g fill="#42132c" fill-opacity="1"><g transform="translate(90.174207, 270.25258)"><g><path d="M 0.171875 -2.6875 C 0.171875 -2.769531 0.195312 -2.925781 0.25 -3.15625 L 8.0625 -28.765625 C 8.289062 -29.460938 8.800781 -30 9.59375 -30.375 C 10.394531 -30.757812 11.3125 -30.953125 12.34375 -30.953125 C 13.382812 -30.953125 14.300781 -30.757812 15.09375 -30.375 C 15.894531 -30 16.40625 -29.460938 16.625 -28.765625 L 24.484375 -3.15625 C 24.535156 -2.925781 24.5625 -2.769531 24.5625 -2.6875 C 24.5625 -1.957031 24.109375 -1.328125 23.203125 -0.796875 C 22.296875 -0.265625 21.351562 0 20.375 0 C 19.164062 0 18.453125 -0.40625 18.234375 -1.21875 L 16.796875 -6.46875 L 7.9375 -6.46875 L 6.515625 -1.21875 C 6.285156 -0.40625 5.570312 0 4.375 0 C 3.382812 0 2.4375 -0.265625 1.53125 -0.796875 C 0.625 -1.328125 0.171875 -1.957031 0.171875 -2.6875 Z M 9.28125 -11.515625 L 15.40625 -11.515625 L 12.34375 -22.765625 Z M 9.28125 -11.515625 "/></g></g></g><g fill="#42132c" fill-opacity="1"><g transform="translate(114.912201, 270.25258)"><g><path d="M 0.34375 -27.796875 C 0.34375 -28.585938 0.507812 -29.269531 0.84375 -29.84375 C 1.175781 -30.414062 1.664062 -30.703125 2.3125 -30.703125 L 20.453125 -30.703125 C 21.097656 -30.703125 21.585938 -30.414062 21.921875 -29.84375 C 22.253906 -29.269531 22.421875 -28.585938 22.421875 -27.796875 C 22.421875 -26.960938 22.242188 -26.257812 21.890625 -25.6875 C 21.546875 -25.113281 21.066406 -24.828125 20.453125 -24.828125 L 14.65625 -24.828125 L 14.65625 -2.015625 C 14.65625 -1.367188 14.332031 -0.867188 13.6875 -0.515625 C 13.039062 -0.171875 12.269531 0 11.375 0 C 10.476562 0 9.707031 -0.171875 9.0625 -0.515625 C 8.425781 -0.867188 8.109375 -1.367188 8.109375 -2.015625 L 8.109375 -24.828125 L 2.3125 -24.828125 C 1.695312 -24.828125 1.210938 -25.113281 0.859375 -25.6875 C 0.515625 -26.257812 0.34375 -26.960938 0.34375 -27.796875 Z M 0.34375 -27.796875 "/></g></g></g><g fill="#42132c" fill-opacity="1"><g transform="translate(137.676192, 270.25258)"><g><path d="M 2.265625 -2.015625 L 2.265625 -28.734375 C 2.265625 -29.367188 2.585938 -29.851562 3.234375 -30.1875 C 3.878906 -30.53125 4.648438 -30.703125 5.546875 -30.703125 C 6.441406 -30.703125 7.207031 -30.53125 7.84375 -30.1875 C 8.488281 -29.851562 8.8125 -29.367188 8.8125 -28.734375 L 8.8125 -18.4375 L 17.171875 -18.4375 L 17.171875 -28.734375 C 17.171875 -29.367188 17.492188 -29.851562 18.140625 -30.1875 C 18.785156 -30.53125 19.554688 -30.703125 20.453125 -30.703125 C 21.347656 -30.703125 22.117188 -30.53125 22.765625 -30.1875 C 23.410156 -29.851562 23.734375 -29.367188 23.734375 -28.734375 L 23.734375 -2.015625 C 23.734375 -1.367188 23.410156 -0.867188 22.765625 -0.515625 C 22.117188 -0.171875 21.347656 0 20.453125 0 C 19.554688 0 18.785156 -0.171875 18.140625 -0.515625 C 17.492188 -0.867188 17.171875 -1.367188 17.171875 -2.015625 L 17.171875 -13.390625 L 8.8125 -13.390625 L 8.8125 -2.015625 C 8.8125 -1.367188 8.488281 -0.867188 7.84375 -0.515625 C 7.207031 -0.171875 6.441406 0 5.546875 0 C 4.648438 0 3.878906 -0.171875 3.234375 -0.515625 C 2.585938 -0.867188 2.265625 -1.367188 2.265625 -2.015625 Z M 2.265625 -2.015625 "/></g></g><g transform="translate(163.67419, 270.25258)"><g><path d="M 2.265625 -2.015625 L 2.265625 -27.421875 C 2.265625 -28.546875 2.578125 -29.375 3.203125 -29.90625 C 3.835938 -30.4375 4.617188 -30.703125 5.546875 -30.703125 C 6.804688 -30.703125 7.765625 -30.507812 8.421875 -30.125 C 9.078125 -29.75 9.8125 -28.847656 10.625 -27.421875 L 14.953125 -19.859375 L 19.28125 -27.421875 C 20.09375 -28.847656 20.828125 -29.75 21.484375 -30.125 C 22.140625 -30.507812 23.097656 -30.703125 24.359375 -30.703125 C 25.285156 -30.703125 26.0625 -30.4375 26.6875 -29.90625 C 27.320312 -29.375 27.640625 -28.546875 27.640625 -27.421875 L 27.640625 -2.015625 C 27.640625 -1.367188 27.316406 -0.867188 26.671875 -0.515625 C 26.023438 -0.171875 25.253906 0 24.359375 0 C 23.460938 0 22.691406 -0.171875 22.046875 -0.515625 C 21.398438 -0.867188 21.078125 -1.367188 21.078125 -2.015625 L 21.078125 -17.765625 L 17.046875 -10.875 C 16.578125 -10.0625 15.851562 -9.65625 14.875 -9.65625 C 13.914062 -9.65625 13.226562 -10.0625 12.8125 -10.875 L 8.8125 -18.1875 L 8.8125 -2.015625 C 8.8125 -1.367188 8.488281 -0.867188 7.84375 -0.515625 C 7.207031 -0.171875 6.441406 0 5.546875 0 C 4.648438 0 3.878906 -0.171875 3.234375 -0.515625 C 2.585938 -0.867188 2.265625 -1.367188 2.265625 -2.015625 Z M 2.265625 -2.015625 "/></g></g></g><g fill="#42132c" fill-opacity="1"><g transform="translate(193.578185, 270.25258)"><g><path d="M 0.171875 -2.6875 C 0.171875 -2.769531 0.195312 -2.925781 0.25 -3.15625 L 8.0625 -28.765625 C 8.289062 -29.460938 8.800781 -30 9.59375 -30.375 C 10.394531 -30.757812 11.3125 -30.953125 12.34375 -30.953125 C 13.382812 -30.953125 14.300781 -30.757812 15.09375 -30.375 C 15.894531 -30 16.40625 -29.460938 16.625 -28.765625 L 24.484375 -3.15625 C 24.535156 -2.925781 24.5625 -2.769531 24.5625 -2.6875 C 24.5625 -1.957031 24.109375 -1.328125 23.203125 -0.796875 C 22.296875 -0.265625 21.351562 0 20.375 0 C 19.164062 0 18.453125 -0.40625 18.234375 -1.21875 L 16.796875 -6.46875 L 7.9375 -6.46875 L 6.515625 -1.21875 C 6.285156 -0.40625 5.570312 0 4.375 0 C 3.382812 0 2.4375 -0.265625 1.53125 -0.796875 C 0.625 -1.328125 0.171875 -1.957031 0.171875 -2.6875 Z M 9.28125 -11.515625 L 15.40625 -11.515625 L 12.34375 -22.765625 Z M 9.28125 -11.515625 "/></g></g></g><g fill="#42132c" fill-opacity="1"><g transform="translate(218.316179, 270.25258)"><g><path d="M 2.265625 -2.015625 L 2.265625 -28.6875 C 2.265625 -29.332031 2.585938 -29.828125 3.234375 -30.171875 C 3.878906 -30.523438 4.648438 -30.703125 5.546875 -30.703125 C 6.804688 -30.703125 7.734375 -30.519531 8.328125 -30.15625 C 8.929688 -29.789062 9.613281 -28.878906 10.375 -27.421875 L 17.171875 -14.453125 L 17.171875 -28.734375 C 17.171875 -29.367188 17.492188 -29.851562 18.140625 -30.1875 C 18.785156 -30.53125 19.554688 -30.703125 20.453125 -30.703125 C 21.347656 -30.703125 22.117188 -30.53125 22.765625 -30.1875 C 23.410156 -29.851562 23.734375 -29.367188 23.734375 -28.734375 L 23.734375 -2.015625 C 23.734375 -1.367188 23.410156 -0.867188 22.765625 -0.515625 C 22.117188 -0.171875 21.347656 0 20.453125 0 C 18.660156 0 17.441406 -0.585938 16.796875 -1.765625 L 8.8125 -16.296875 L 8.8125 -2.015625 C 8.8125 -1.367188 8.488281 -0.867188 7.84375 -0.515625 C 7.207031 -0.171875 6.441406 0 5.546875 0 C 4.648438 0 3.878906 -0.171875 3.234375 -0.515625 C 2.585938 -0.867188 2.265625 -1.367188 2.265625 -2.015625 Z M 2.265625 -2.015625 "/></g></g><g transform="translate(244.314177, 270.25258)"><g><path d="M 2.265625 -1.96875 L 2.265625 -28.734375 C 2.265625 -29.265625 2.53125 -29.722656 3.0625 -30.109375 C 3.59375 -30.503906 4.28125 -30.703125 5.125 -30.703125 L 12.5625 -30.703125 C 15.695312 -30.703125 18.203125 -29.898438 20.078125 -28.296875 C 21.953125 -26.703125 22.890625 -24.203125 22.890625 -20.796875 L 22.890625 -9.90625 C 22.890625 -6.488281 21.953125 -3.984375 20.078125 -2.390625 C 18.203125 -0.796875 15.695312 0 12.5625 0 L 5.125 0 C 4.28125 0 3.59375 -0.191406 3.0625 -0.578125 C 2.53125 -0.972656 2.265625 -1.4375 2.265625 -1.96875 Z M 8.8125 -5.71875 L 12.5625 -5.71875 C 15.082031 -5.71875 16.34375 -7.113281 16.34375 -9.90625 L 16.34375 -20.796875 C 16.34375 -23.585938 15.082031 -24.984375 12.5625 -24.984375 L 8.8125 -24.984375 Z M 8.8125 -5.71875 "/></g></g></g><g fill="#42132c" fill-opacity="1"><g transform="translate(269.094183, 270.25258)"><g><path d="M 2.140625 -9.65625 L 2.140625 -28.734375 C 2.140625 -29.367188 2.453125 -29.851562 3.078125 -30.1875 C 3.710938 -30.53125 4.492188 -30.703125 5.421875 -30.703125 C 6.316406 -30.703125 7.082031 -30.53125 7.71875 -30.1875 C 8.363281 -29.851562 8.6875 -29.367188 8.6875 -28.734375 L 8.6875 -9.65625 C 8.6875 -6.851562 10.03125 -5.453125 12.71875 -5.453125 C 15.414062 -5.453125 16.765625 -6.851562 16.765625 -9.65625 L 16.765625 -28.734375 C 16.765625 -29.367188 17.078125 -29.851562 17.703125 -30.1875 C 18.328125 -30.53125 19.101562 -30.703125 20.03125 -30.703125 C 20.925781 -30.703125 21.695312 -30.53125 22.34375 -30.1875 C 22.988281 -29.851562 23.3125 -29.367188 23.3125 -28.734375 L 23.3125 -9.65625 C 23.3125 -6.238281 22.34375 -3.734375 20.40625 -2.140625 C 18.476562 -0.546875 15.914062 0.25 12.71875 0.25 C 9.5 0.25 6.929688 -0.546875 5.015625 -2.140625 C 3.097656 -3.734375 2.140625 -6.238281 2.140625 -9.65625 Z M 2.140625 -9.65625 "/></g></g></g><g fill="#42132c" fill-opacity="1"><g transform="translate(294.54282, 270.25258)"><g/></g></g><g fill="#42132c" fill-opacity="1"><g transform="translate(121.136715, 292.752578)"><g><path d="M 1.46875 0 C 1.363281 0 1.273438 -0.03125 1.203125 -0.09375 C 1.140625 -0.164062 1.109375 -0.257812 1.109375 -0.375 L 1.109375 -10.125 C 1.109375 -10.238281 1.140625 -10.328125 1.203125 -10.390625 C 1.273438 -10.460938 1.363281 -10.5 1.46875 -10.5 L 3.09375 -10.5 C 3.195312 -10.5 3.285156 -10.460938 3.359375 -10.390625 C 3.429688 -10.328125 3.46875 -10.238281 3.46875 -10.125 L 3.46875 -6.703125 L 6.546875 -10.21875 C 6.578125 -10.28125 6.640625 -10.34375 6.734375 -10.40625 C 6.835938 -10.46875 6.96875 -10.5 7.125 -10.5 L 8.953125 -10.5 C 9.035156 -10.5 9.109375 -10.46875 9.171875 -10.40625 C 9.234375 -10.34375 9.265625 -10.269531 9.265625 -10.1875 C 9.265625 -10.113281 9.242188 -10.050781 9.203125 -10 L 5.359375 -5.46875 L 9.5 -0.5 C 9.539062 -0.457031 9.5625 -0.394531 9.5625 -0.3125 C 9.5625 -0.226562 9.523438 -0.15625 9.453125 -0.09375 C 9.390625 -0.03125 9.316406 0 9.234375 0 L 7.34375 0 C 7.164062 0 7.03125 -0.0351562 6.9375 -0.109375 C 6.851562 -0.191406 6.796875 -0.25 6.765625 -0.28125 L 3.46875 -4.125 L 3.46875 -0.375 C 3.46875 -0.257812 3.429688 -0.164062 3.359375 -0.09375 C 3.285156 -0.03125 3.195312 0 3.09375 0 Z M 1.46875 0 "/></g></g></g><g fill="#42132c" fill-opacity="1"><g transform="translate(142.091704, 292.752578)"><g><path d="M 1.46875 0 C 1.363281 0 1.273438 -0.03125 1.203125 -0.09375 C 1.140625 -0.164062 1.109375 -0.257812 1.109375 -0.375 L 1.109375 -10.125 C 1.109375 -10.238281 1.140625 -10.328125 1.203125 -10.390625 C 1.273438 -10.460938 1.363281 -10.5 1.46875 -10.5 L 3.1875 -10.5 C 3.289062 -10.5 3.378906 -10.460938 3.453125 -10.390625 C 3.523438 -10.328125 3.5625 -10.238281 3.5625 -10.125 L 3.5625 -0.375 C 3.5625 -0.257812 3.523438 -0.164062 3.453125 -0.09375 C 3.378906 -0.03125 3.289062 0 3.1875 0 Z M 1.46875 0 "/></g></g></g><g fill="#42132c" fill-opacity="1"><g transform="translate(158.006704, 292.752578)"><g><path d="M 3.796875 0 C 3.679688 0 3.585938 -0.03125 3.515625 -0.09375 C 3.453125 -0.164062 3.421875 -0.257812 3.421875 -0.375 L 3.421875 -8.40625 L 0.6875 -8.40625 C 0.59375 -8.40625 0.507812 -8.4375 0.4375 -8.5 C 0.363281 -8.570312 0.328125 -8.664062 0.328125 -8.78125 L 0.328125 -10.125 C 0.328125 -10.238281 0.363281 -10.328125 0.4375 -10.390625 C 0.507812 -10.460938 0.59375 -10.5 0.6875 -10.5 L 8.546875 -10.5 C 8.660156 -10.5 8.75 -10.460938 8.8125 -10.390625 C 8.882812 -10.328125 8.921875 -10.238281 8.921875 -10.125 L 8.921875 -8.78125 C 8.921875 -8.664062 8.882812 -8.570312 8.8125 -8.5 C 8.75 -8.4375 8.660156 -8.40625 8.546875 -8.40625 L 5.828125 -8.40625 L 5.828125 -0.375 C 5.828125 -0.257812 5.789062 -0.164062 5.71875 -0.09375 C 5.65625 -0.03125 5.566406 0 5.453125 0 Z M 3.796875 0 "/></g></g></g><g fill="#42132c" fill-opacity="1"><g transform="translate(178.511688, 292.752578)"><g><path d="M 5.28125 0.15625 C 4.351562 0.15625 3.554688 0 2.890625 -0.3125 C 2.234375 -0.632812 1.722656 -1.097656 1.359375 -1.703125 C 1.003906 -2.304688 0.804688 -3.046875 0.765625 -3.921875 C 0.753906 -4.328125 0.75 -4.765625 0.75 -5.234375 C 0.75 -5.703125 0.753906 -6.148438 0.765625 -6.578125 C 0.804688 -7.441406 1.007812 -8.175781 1.375 -8.78125 C 1.738281 -9.382812 2.25 -9.847656 2.90625 -10.171875 C 3.570312 -10.492188 4.363281 -10.65625 5.28125 -10.65625 C 5.957031 -10.65625 6.566406 -10.566406 7.109375 -10.390625 C 7.660156 -10.222656 8.132812 -9.976562 8.53125 -9.65625 C 8.9375 -9.34375 9.25 -8.96875 9.46875 -8.53125 C 9.695312 -8.101562 9.816406 -7.625 9.828125 -7.09375 C 9.835938 -7 9.804688 -6.921875 9.734375 -6.859375 C 9.671875 -6.804688 9.597656 -6.78125 9.515625 -6.78125 L 7.78125 -6.78125 C 7.664062 -6.78125 7.570312 -6.804688 7.5 -6.859375 C 7.425781 -6.910156 7.367188 -7.007812 7.328125 -7.15625 C 7.179688 -7.757812 6.929688 -8.164062 6.578125 -8.375 C 6.234375 -8.59375 5.800781 -8.703125 5.28125 -8.703125 C 4.664062 -8.703125 4.175781 -8.53125 3.8125 -8.1875 C 3.457031 -7.851562 3.265625 -7.296875 3.234375 -6.515625 C 3.203125 -5.691406 3.203125 -4.847656 3.234375 -3.984375 C 3.265625 -3.203125 3.457031 -2.640625 3.8125 -2.296875 C 4.175781 -1.960938 4.664062 -1.796875 5.28125 -1.796875 C 5.800781 -1.796875 6.238281 -1.90625 6.59375 -2.125 C 6.945312 -2.34375 7.191406 -2.75 7.328125 -3.34375 C 7.367188 -3.488281 7.425781 -3.585938 7.5 -3.640625 C 7.570312 -3.691406 7.664062 -3.71875 7.78125 -3.71875 L 9.515625 -3.71875 C 9.597656 -3.71875 9.671875 -3.6875 9.734375 -3.625 C 9.804688 -3.570312 9.835938 -3.5 9.828125 -3.40625 C 9.816406 -2.875 9.695312 -2.390625 9.46875 -1.953125 C 9.25 -1.523438 8.9375 -1.148438 8.53125 -0.828125 C 8.132812 -0.515625 7.660156 -0.269531 7.109375 -0.09375 C 6.566406 0.0703125 5.957031 0.15625 5.28125 0.15625 Z M 5.28125 0.15625 "/></g></g></g><g fill="#42132c" fill-opacity="1"><g transform="translate(200.156676, 292.752578)"><g><path d="M 1.46875 0 C 1.363281 0 1.273438 -0.03125 1.203125 -0.09375 C 1.140625 -0.164062 1.109375 -0.257812 1.109375 -0.375 L 1.109375 -10.125 C 1.109375 -10.238281 1.140625 -10.328125 1.203125 -10.390625 C 1.273438 -10.460938 1.363281 -10.5 1.46875 -10.5 L 3.125 -10.5 C 3.226562 -10.5 3.316406 -10.460938 3.390625 -10.390625 C 3.460938 -10.328125 3.5 -10.238281 3.5 -10.125 L 3.5 -6.375 L 7.5625 -6.375 L 7.5625 -10.125 C 7.5625 -10.238281 7.59375 -10.328125 7.65625 -10.390625 C 7.726562 -10.460938 7.816406 -10.5 7.921875 -10.5 L 9.5625 -10.5 C 9.675781 -10.5 9.765625 -10.460938 9.828125 -10.390625 C 9.898438 -10.328125 9.9375 -10.238281 9.9375 -10.125 L 9.9375 -0.375 C 9.9375 -0.257812 9.898438 -0.164062 9.828125 -0.09375 C 9.765625 -0.03125 9.675781 0 9.5625 0 L 7.921875 0 C 7.816406 0 7.726562 -0.03125 7.65625 -0.09375 C 7.59375 -0.164062 7.5625 -0.257812 7.5625 -0.375 L 7.5625 -4.25 L 3.5 -4.25 L 3.5 -0.375 C 3.5 -0.257812 3.460938 -0.164062 3.390625 -0.09375 C 3.316406 -0.03125 3.226562 0 3.125 0 Z M 1.46875 0 "/></g></g></g><g fill="#42132c" fill-opacity="1"><g transform="translate(222.461667, 292.752578)"><g><path d="M 1.46875 0 C 1.363281 0 1.273438 -0.03125 1.203125 -0.09375 C 1.140625 -0.164062 1.109375 -0.257812 1.109375 -0.375 L 1.109375 -10.125 C 1.109375 -10.238281 1.140625 -10.328125 1.203125 -10.390625 C 1.273438 -10.460938 1.363281 -10.5 1.46875 -10.5 L 8.28125 -10.5 C 8.382812 -10.5 8.472656 -10.460938 8.546875 -10.390625 C 8.617188 -10.328125 8.65625 -10.238281 8.65625 -10.125 L 8.65625 -8.921875 C 8.65625 -8.816406 8.617188 -8.726562 8.546875 -8.65625 C 8.472656 -8.582031 8.382812 -8.546875 8.28125 -8.546875 L 3.421875 -8.546875 L 3.421875 -6.203125 L 7.953125 -6.203125 C 8.054688 -6.203125 8.144531 -6.164062 8.21875 -6.09375 C 8.289062 -6.03125 8.328125 -5.941406 8.328125 -5.828125 L 8.328125 -4.71875 C 8.328125 -4.625 8.289062 -4.535156 8.21875 -4.453125 C 8.144531 -4.378906 8.054688 -4.34375 7.953125 -4.34375 L 3.421875 -4.34375 L 3.421875 -1.953125 L 8.40625 -1.953125 C 8.507812 -1.953125 8.597656 -1.914062 8.671875 -1.84375 C 8.742188 -1.769531 8.78125 -1.679688 8.78125 -1.578125 L 8.78125 -0.375 C 8.78125 -0.257812 8.742188 -0.164062 8.671875 -0.09375 C 8.597656 -0.03125 8.507812 0 8.40625 0 Z M 1.46875 0 "/></g></g></g><g fill="#42132c" fill-opacity="1"><g transform="translate(243.176662, 292.752578)"><g><path d="M 1.46875 0 C 1.363281 0 1.273438 -0.03125 1.203125 -0.09375 C 1.140625 -0.164062 1.109375 -0.257812 1.109375 -0.375 L 1.109375 -10.125 C 1.109375 -10.238281 1.140625 -10.328125 1.203125 -10.390625 C 1.273438 -10.460938 1.363281 -10.5 1.46875 -10.5 L 2.84375 -10.5 C 3 -10.5 3.109375 -10.460938 3.171875 -10.390625 C 3.242188 -10.328125 3.289062 -10.273438 3.3125 -10.234375 L 7.3125 -3.984375 L 7.3125 -10.125 C 7.3125 -10.238281 7.34375 -10.328125 7.40625 -10.390625 C 7.476562 -10.460938 7.570312 -10.5 7.6875 -10.5 L 9.203125 -10.5 C 9.316406 -10.5 9.40625 -10.460938 9.46875 -10.390625 C 9.539062 -10.328125 9.578125 -10.238281 9.578125 -10.125 L 9.578125 -0.375 C 9.578125 -0.269531 9.539062 -0.179688 9.46875 -0.109375 C 9.40625 -0.0351562 9.316406 0 9.203125 0 L 7.828125 0 C 7.679688 0 7.570312 -0.0351562 7.5 -0.109375 C 7.425781 -0.179688 7.378906 -0.234375 7.359375 -0.265625 L 3.390625 -6.3125 L 3.390625 -0.375 C 3.390625 -0.257812 3.351562 -0.164062 3.28125 -0.09375 C 3.21875 -0.03125 3.128906 0 3.015625 0 Z M 1.46875 0 "/></g></g></g></svg>